<?xml version="1.0" encoding="utf-8"?>
<!-- Generator: Adobe Illustrator 16.0.0, SVG Export Plug-In . SVG Version: 6.00 Build 0)  -->
<!DOCTYPE svg PUBLIC "-//W3C//DTD SVG 1.1//EN" "http://www.w3.org/Graphics/SVG/1.1/DTD/svg11.dtd">
<svg version="1.1" id="Layer_1" xmlns="http://www.w3.org/2000/svg" xmlns:xlink="http://www.w3.org/1999/xlink" x="0px" y="0px"
	 width="335px" height="213px" viewBox="0 0 335 213" enable-background="new 0 0 335 213" xml:space="preserve">
<path fill="none" stroke="#C2B59B" stroke-width="3" stroke-miterlimit="10" d="M325.834,205.336H42.251
	c-18.271,0-33.084-14.542-33.084-32.481V7.664h283.581c18.273,0,33.086,14.542,33.086,32.481V205.336z"/>
<g>
	<g>
		<g>
			<g>
				<rect x="205.06" y="33.998" fill="#EFE4D8" width="19.845" height="17.224"/>
				<rect x="203.202" y="30.051" fill="#C35E42" width="23.56" height="6.577"/>
				<g>
					<path fill="#CDCCCC" d="M239.842,143.55c0,3.003-2.438,5.444-5.442,5.444H99.404c-3.008,0-5.444-2.441-5.444-5.444l0,0
						c0-3.007,2.437-5.447,5.444-5.447h134.995C237.403,138.103,239.842,140.543,239.842,143.55L239.842,143.55z"/>
					<g>
						<g>
							<rect x="105.825" y="87.395" fill="#EFE4D8" width="122.15" height="55.966"/>
							<rect x="105.825" y="87.395" fill="#CDCCCC" width="122.15" height="3.712"/>
						</g>
						<g>
							<polygon fill="#C35E42" points="235.058,87.395 98.741,87.395 109.033,51.222 224.904,51.222 							"/>
						</g>
						<g>
							<g>
								<g>
									<polygon fill="#795B3A" points="152.454,140.729 152.291,94.59 181.512,94.59 181.676,140.729 									"/>
									<rect x="154.921" y="97.408" fill="#674D33" width="23.96" height="43.32"/>
								</g>
							</g>
							<rect x="119.765" y="100.04" fill="#DDE9E2" width="19.73" height="30.749"/>
							<g>
								<rect x="194.306" y="100.04" fill="#DDE9E2" width="19.732" height="30.749"/>
							</g>
						</g>
					</g>
				</g>
				<line fill="none" stroke="#403627" stroke-width="0.6104" x1="129.631" y1="131.719" x2="129.631" y2="99.108"/>
				<line fill="none" stroke="#403627" stroke-width="0.6104" x1="118.688" y1="115.415" x2="140.572" y2="115.415"/>
				<path fill="#795B3A" d="M117.135,97.408v36.011h24.991V97.408H117.135z M139.495,114.428h-8.879V100.04h8.879V114.428z
					 M128.643,100.04v14.388h-8.878V100.04H128.643z M119.765,116.401h8.878v14.388h-8.878V116.401z M130.616,130.789v-14.388h8.879
					v14.388H130.616z"/>
				<path fill="#795B3A" d="M191.676,97.408v36.011h24.992V97.408H191.676z M214.038,114.428h-8.88V100.04h8.88V114.428z
					 M203.186,100.04v14.388h-8.88V100.04H203.186z M194.306,116.401h8.88v14.388h-8.88V116.401z M205.158,130.789v-14.388h8.88
					v14.388H205.158z"/>
				<circle fill="#E0E1E0" cx="158.377" cy="122.176" r="1.315"/>
				<circle fill="#F3F3F3" cx="157.945" cy="121.745" r="1.315"/>
				<rect x="157.989" y="100.425" fill="#DDE9E2" width="17.987" height="14.031"/>
				<polygon fill="#CDCCCC" points="205.06,36.628 224.904,36.628 224.904,41.287 				"/>
				<polygon fill="#E0E1E0" points="154.921,97.408 154.921,140.729 155.671,140.729 155.671,98.151 178.881,98.151 178.881,97.408 
									"/>
				<rect x="149.548" y="140.729" fill="#C35E42" width="35.033" height="2.633"/>
			</g>
			<path fill="#E0E1E0" d="M235.058,87.395l-10.153-36.173H109.033L98.741,87.395H235.058z M224.741,51.437l10.033,35.744h-22.25
				l-6.688-35.744H224.741z M205.4,51.437l6.687,35.744h-22.224l-3.347-35.744H205.4z M167.169,51.437h18.916l3.346,35.744h-22.262
				V51.437z M166.739,51.437v35.744h-22.262l3.347-35.744H166.739z M147.392,51.437l-3.347,35.744h-22.224l6.688-35.744H147.392z
				 M109.167,51.437h18.904l-6.688,35.744h-22.25L109.167,51.437z"/>
		</g>
		<g>
			<g>
				<path fill="#FFD7A3" d="M134.961,163.373l-0.32-1.092c-0.151-0.527-0.667-0.85-1.194-0.784l-1.116-8.358
					c-0.366-2.747-2.069-5.131-4.547-6.37l-3.6-1.802c-0.547-0.271-1.171-0.021-1.427,0.505l-7.196-2.647
					c-1.366-0.455-2.288-1.732-2.288-3.172v-5.391l7.203-3.002c3.737-1.558,6.17-5.21,6.17-9.259v-1.673
					c2.771,0,5.017-2.243,5.017-5.015c0-2.77-2.245-5.015-5.017-5.015v-3.344c0-4.616-3.739-11.702-8.358-11.702H88.195
					c-4.615,0-8.357,7.086-8.357,11.702v3.344c-2.77,0-5.015,2.245-5.015,5.015c0,2.771,2.245,5.015,5.015,5.015v1.673
					c0,4.049,2.436,7.701,6.171,9.259l7.201,3.002v5.391c0,1.439-0.919,2.719-2.284,3.172l-7.056,2.596
					c-0.268-0.493-0.869-0.718-1.396-0.455l-3.283,1.642c-2.801,1.401-4.505,3.785-4.869,6.532l-1.115,8.358
					c-0.529-0.065-1.044,0.257-1.196,0.784l-0.318,1.094c-0.174,0.584,0.163,1.196,0.748,1.366l2.383,0.696v5.044
					c0,1.845,1.495,3.344,3.343,3.344h50.152c1.846,0,3.344-1.499,3.344-3.344v-4.996l2.549-0.744
					C134.796,164.571,135.131,163.959,134.961,163.373L134.961,163.373z M134.961,163.373"/>
				<path fill="#FDC98E" d="M113.272,134.119H93.21v5.533c0,1.19-0.629,2.267-1.617,2.862
					C105.578,144.931,113.272,134.119,113.272,134.119L113.272,134.119z M113.272,134.119"/>
				<path fill="#8DB9E3" d="M133.666,163.153l-1.336-10.015c-0.366-2.747-2.069-5.131-4.547-6.37l-3.6-1.802
					c-0.612-0.305-1.322,0.044-1.503,0.703c-2.317,8.518-10.104,14.782-19.355,14.782c-9.254,0-17.041-6.268-19.356-14.788
					c-0.179-0.656-0.888-1.004-1.494-0.699l-3.283,1.642c-2.801,1.401-4.505,3.785-4.869,6.532l-1.361,10.205
					c4.415,1.521,11.976,3.794,11.976,3.794v6.688h36.778v-6.688L133.666,163.153z M133.666,163.153"/>
				<path fill="#6CA1D6" d="M84.896,166.627c-0.102-1.987-0.768-3.909-1.966-5.508l-7.846-10.464c-0.38,0.78-0.648,1.61-0.762,2.483
					l-1.327,9.938L84.896,166.627z M84.896,166.627"/>
				<path fill="#5088BC" d="M71.692,163.373c-0.174,0.586,0.163,1.198,0.748,1.368l12.496,3.646v-1.25
					c0-0.789-0.124-1.564-0.305-2.322l-11.255-3.283c-0.584-0.171-1.196,0.165-1.366,0.749L71.692,163.373z M71.692,163.373"/>
				<path fill="#6CA1D6" d="M121.756,166.627c0.102-1.987,0.766-3.909,1.965-5.508l7.849-10.464c0.378,0.78,0.646,1.61,0.761,2.483
					l1.326,9.938L121.756,166.627z M121.756,166.627"/>
				<path fill="#5088BC" d="M134.961,163.373c0.17,0.586-0.165,1.198-0.75,1.368l-12.496,3.646v-1.25
					c0-0.789,0.124-1.564,0.305-2.322l11.255-3.283c0.584-0.171,1.198,0.165,1.366,0.749L134.961,163.373z M134.961,163.373"/>
				<path fill="#9E6F49" d="M76.495,106.955c-5.016,0-15.045,1.881-15.045,16.717c0,14.838-3.346,33.435-3.346,33.435
					s16.719-1.771,16.719-21.73c0-18.6,3.343-21.733,3.343-21.733L76.495,106.955z M76.495,106.955"/>
				<path fill="#8E603E" d="M74.823,135.376c0-18.6,3.343-21.733,3.343-21.733l-3.343-5.016c-1.933,0.262-9.332,0.314-8.358,13.374
					c0.976,13.096,5.85,26.33-8.36,35.105C58.104,157.106,74.823,155.336,74.823,135.376L74.823,135.376z M74.823,135.376"/>
				<path fill="#6CA1D6" d="M78.475,112.119l-2.081-5.734c-0.314-0.868-1.273-1.316-2.14-1c-0.87,0.314-1.315,1.273-1.001,2.141
					l2.079,5.733c0.314,0.868,1.273,1.315,2.142,1.003C78.342,113.945,78.79,112.986,78.475,112.119L78.475,112.119z
					 M78.475,112.119"/>
				<path fill="#9E6F49" d="M129.991,106.955c5.013,0,15.043,1.881,15.043,16.717c0,14.838,3.346,33.435,3.346,33.435
					s-16.718-1.771-16.718-21.73c0-18.6-3.344-21.733-3.344-21.733L129.991,106.955z M129.991,106.955"/>
				<path fill="#8E603E" d="M131.662,135.376c0-18.6-3.344-21.733-3.344-21.733l3.344-5.016c1.934,0.262,9.331,0.314,8.358,13.374
					c-0.977,13.096-5.853,26.33,8.359,35.105C148.38,157.106,131.662,155.336,131.662,135.376L131.662,135.376z M131.662,135.376"/>
				<path fill="#6CA1D6" d="M128.011,112.119l2.08-5.734c0.314-0.868,1.273-1.316,2.14-1c0.87,0.314,1.315,1.273,1.003,2.141
					l-2.08,5.733c-0.315,0.868-1.274,1.315-2.143,1.003C128.143,113.945,127.694,112.986,128.011,112.119L128.011,112.119z
					 M128.011,112.119"/>
				<path fill="#FFE1B2" d="M126.646,110.299v-3.344c0-4.616-3.739-11.702-8.358-11.702H88.195c-4.615,0-8.357,7.086-8.357,11.702
					v3.342c-2.77,0-5.015,2.247-5.015,5.017s2.245,5.015,5.015,5.015v1.673c0,4.049,2.436,7.701,6.171,9.259l10.803,4.501
					c2.039,0.848,4.225,1.284,6.432,1.284c2.205,0,4.391-0.437,6.43-1.284l10.803-4.501c3.737-1.558,6.17-5.21,6.17-9.259v-1.673
					c2.771,0,5.017-2.243,5.017-5.015C131.662,112.544,129.417,110.299,126.646,110.299L126.646,110.299z M126.646,110.299"/>
				<path fill="#634034" d="M91.541,116.986c-0.921,0-1.673-0.753-1.673-1.673v-1.671c0-0.92,0.752-1.673,1.673-1.673
					c0.92,0,1.669,0.753,1.669,1.673v1.671C93.21,116.233,92.461,116.986,91.541,116.986L91.541,116.986z M91.541,116.986"/>
				<path fill="#634034" d="M114.945,116.986c-0.92,0-1.673-0.753-1.673-1.673v-1.671c0-0.92,0.753-1.673,1.673-1.673
					s1.669,0.753,1.669,1.673v1.671C116.614,116.233,115.865,116.986,114.945,116.986L114.945,116.986z M114.945,116.986"/>
				<path fill="#E4B17C" d="M103.243,128.733c-2.974,0-5.754-0.731-7.628-2.007c-0.763-0.519-0.963-1.559-0.441-2.322
					c0.518-0.762,1.559-0.959,2.322-0.442c1.313,0.895,3.462,1.429,5.747,1.429c2.283,0,4.432-0.534,5.745-1.429
					c0.765-0.521,1.804-0.321,2.322,0.442c0.52,0.764,0.322,1.804-0.441,2.322C108.995,128.002,106.216,128.733,103.243,128.733
					L103.243,128.733z M103.243,128.733"/>
				<path fill="#FFD7A3" d="M101.79,95.044c-0.29,9.035-21.952,15.255-21.952,15.255c-2.77,0-5.015,2.245-5.015,5.015
					c0,2.771,2.245,5.015,5.015,5.015v1.673c0,4.049,2.436,7.701,6.171,9.259l10.803,4.501c0.53,0.22,1.069,0.409,1.614,0.574
					c-4.771-3.491-7.95-6.545-9.812-8.541c-1.354-1.454-2.087-3.369-2.087-5.354v-9.344c4.782-1.669,18.214-7.156,18.388-16.17
					c0.014-0.685,0.004-1.31-0.025-1.881H101.79z M101.79,95.044"/>
				<path fill="#9E6F49" d="M111.6,76.864c-5.431,0-8.356,1.672-8.356,1.672s-2.924-1.672-8.358-1.672s-26.053,10.46-18.39,34.701
					c0,0,26.748-4.749,26.748-16.312c0,11.563,26.748,16.312,26.748,16.312C137.653,87.324,117.034,76.864,111.6,76.864
					L111.6,76.864z M111.6,76.864"/>
				<path fill="#8E603E" d="M103.243,78.537L103.243,78.537c0-0.001-2.924-1.673-8.358-1.673s-26.053,10.46-18.39,34.701
					c0,0,3.237-0.577,7.458-1.812C79.23,88.017,98.059,78.554,103.243,78.537L103.243,78.537z M103.243,78.537"/>
				<path fill="#F68B55" d="M104.914,170.479c0,0.925-0.748,1.673-1.671,1.673s-1.675-0.748-1.675-1.673
					c0-0.921,0.752-1.671,1.675-1.671S104.914,169.559,104.914,170.479L104.914,170.479z M104.914,170.479"/>
				<path fill="#F68B55" d="M91.541,170.479c0,0.925-0.749,1.673-1.673,1.673c-0.923,0-1.673-0.748-1.673-1.673
					c0-0.921,0.75-1.671,1.673-1.671C90.792,168.809,91.541,169.559,91.541,170.479L91.541,170.479z M91.541,170.479"/>
				<path fill="#F68B55" d="M118.287,170.479c0,0.925-0.748,1.673-1.673,1.673c-0.923,0-1.669-0.748-1.669-1.673
					c0-0.921,0.746-1.671,1.669-1.671C117.539,168.809,118.287,169.559,118.287,170.479L118.287,170.479z M118.287,170.479"/>
				<path fill="#FFC94B" d="M111.6,170.479c0,0.925-0.748,1.673-1.671,1.673c-0.922,0-1.671-0.748-1.671-1.673
					c0-0.921,0.749-1.671,1.671-1.671C110.852,168.809,111.6,169.559,111.6,170.479L111.6,170.479z M111.6,170.479"/>
				<path fill="#FFC94B" d="M98.229,170.479c0,0.925-0.75,1.673-1.675,1.673c-0.921,0-1.669-0.748-1.669-1.673
					c0-0.921,0.748-1.671,1.669-1.671C97.479,168.809,98.229,169.559,98.229,170.479L98.229,170.479z M98.229,170.479"/>
				<path fill="#FFC94B" d="M108.258,165.465c0,0.925-0.748,1.673-1.673,1.673c-0.921,0-1.671-0.748-1.671-1.673
					c0-0.923,0.75-1.671,1.671-1.671C107.51,163.794,108.258,164.542,108.258,165.465L108.258,165.465z M108.258,165.465"/>
				<path fill="#FFC94B" d="M94.885,165.465c0,0.925-0.749,1.673-1.675,1.673c-0.921,0-1.669-0.748-1.669-1.673
					c0-0.923,0.748-1.671,1.669-1.671C94.136,163.794,94.885,164.542,94.885,165.465L94.885,165.465z M94.885,165.465"/>
				<path fill="#FFC94B" d="M121.631,165.465c0,0.925-0.748,1.673-1.669,1.673c-0.926,0-1.675-0.748-1.675-1.673
					c0-0.923,0.749-1.671,1.675-1.671C120.883,163.794,121.631,164.542,121.631,165.465L121.631,165.465z M121.631,165.465"/>
				<path fill="#F68B55" d="M88.195,165.465c0,0.925-0.747,1.673-1.669,1.673c-0.923,0-1.674-0.748-1.674-1.673
					c0-0.923,0.751-1.671,1.674-1.671C87.448,163.794,88.195,164.542,88.195,165.465L88.195,165.465z M88.195,165.465"/>
				<path fill="#F68B55" d="M114.945,165.465c0,0.925-0.75,1.673-1.673,1.673s-1.673-0.748-1.673-1.673
					c0-0.923,0.75-1.671,1.673-1.671S114.945,164.542,114.945,165.465L114.945,165.465z M114.945,165.465"/>
				<path fill="#F68B55" d="M101.568,165.465c0,0.925-0.746,1.673-1.669,1.673c-0.925,0-1.671-0.748-1.671-1.673
					c0-0.923,0.746-1.671,1.671-1.671C100.822,163.794,101.568,164.542,101.568,165.465L101.568,165.465z M101.568,165.465"/>
			</g>
			<g>
				<g>
					<defs>
						<rect id="SVGID_1_" x="200.068" y="76.603" width="66.827" height="97.42"/>
					</defs>
					<clipPath id="SVGID_2_">
						<use xlink:href="#SVGID_1_"  overflow="visible"/>
					</clipPath>
					<path clip-path="url(#SVGID_2_)" fill="#F5B47B" d="M266.886,165.178l-0.152-1.364c-0.06-0.542-0.546-0.931-1.088-0.87
						l-0.082,0.01l-1.47-11.748c-0.318-2.553-2.079-4.698-4.521-5.513l-10.815-3.605c-0.216,0.49-0.455,0.968-0.719,1.431
						l-2.243-0.746c-1.364-0.456-2.284-1.733-2.284-3.172v-5.392l7.199-3.001c3.739-1.558,6.174-5.209,6.174-9.26v-1.672
						c2.77,0,5.016-2.244,5.016-5.014s-2.246-5.016-5.016-5.016v-3.344c0-4.615-3.743-8.358-8.357-8.358h-30.093
						c-4.615,0-8.358,3.743-8.358,8.358v3.344c-2.77,0-5.015,2.246-5.015,5.016s2.245,5.014,5.015,5.014v1.672
						c0,4.051,2.437,7.702,6.172,9.26l7.203,3.001v5.392c0,1.438-0.922,2.716-2.288,3.172l-2.243,0.747
						c-0.262-0.464-0.502-0.941-0.719-1.432l-10.813,3.605c-2.444,0.814-4.201,2.96-4.52,5.513l-1.47,11.748l-0.086-0.01
						c-0.54-0.061-1.026,0.328-1.087,0.87l-0.151,1.364c-0.058,0.54,0.33,1.028,0.87,1.089l2.444,0.27v3.892
						c0,1.847,1.496,3.344,3.344,3.344h53.496c1.848,0,3.344-1.497,3.344-3.344v-3.892l2.445-0.27
						C266.557,166.206,266.945,165.718,266.886,165.178L266.886,165.178z M266.886,165.178"/>
				</g>
				<path fill="#744B3F" d="M256.878,88.558c0-0.015,0.006-0.028,0.006-0.044c0-4.616-3.743-8.358-8.357-8.358
					c-1.303,0-2.517,0.322-3.613,0.851c-1.375-1.538-3.355-2.523-5.582-2.523c-1.167,0-2.259,0.289-3.244,0.762
					c-0.878-1.452-2.458-2.434-4.278-2.434c-2.008,0-3.728,1.187-4.528,2.891c-1.086-0.763-2.403-1.219-3.83-1.219
					c-2.801,0-5.189,1.724-6.188,4.166c-0.586-0.505-1.339-0.822-2.171-0.822c-1.848,0-3.346,1.497-3.346,3.344
					c0,0-8.358-0.069-8.358,10.03c0,4.708,3.344,18.389,3.344,18.389h53.496c0,0,1.672-7.731,1.672-18.389
					C261.899,92.305,259.208,90.006,256.878,88.558L256.878,88.558z M256.878,88.558"/>
				<path fill="#5E352F" d="M230.825,103.46c-4.148-0.493-7.375-3.98-7.375-8.26c0-4.302,3.261-7.804,7.442-8.266
					c-0.475-1.051-0.759-2.208-0.759-3.436c0-2.621,1.227-4.933,3.117-6.457c-0.459-0.142-0.938-0.231-1.442-0.231
					c-2.008,0-3.728,1.187-4.528,2.891c-1.086-0.763-2.403-1.219-3.83-1.219c-2.801,0-5.189,1.724-6.188,4.166
					c-0.586-0.505-1.339-0.822-2.171-0.822c-1.848,0-3.346,1.497-3.346,3.344c0,0-8.358-0.069-8.358,10.03
					c0,4.708,3.344,18.389,3.344,18.389h24.032L230.825,103.46z M230.825,103.46"/>
				<path fill="#E3A172" d="M243.511,134.069H223.45v5.53c0,1.203-0.667,2.262-1.676,2.854
					C235.794,144.908,243.511,134.069,243.511,134.069L243.511,134.069z M243.511,134.069"/>
				<path fill="#FDC98E" d="M256.884,110.246v-3.344c0-4.615-3.743-8.358-8.357-8.358h-30.093c-4.615,0-8.358,3.743-8.358,8.358
					v3.344c-2.77,0-5.015,2.246-5.015,5.016s2.245,5.014,5.015,5.014v1.672c0,4.051,2.437,7.702,6.172,9.26l10.801,4.502
					c2.039,0.848,4.225,1.284,6.432,1.284s4.393-0.437,6.428-1.284l10.803-4.502c3.739-1.558,6.174-5.209,6.174-9.26v-1.672
					c2.77,0,5.016-2.244,5.016-5.014S259.653,110.246,256.884,110.246L256.884,110.246z M256.884,110.246"/>
				<path fill="#634034" d="M221.775,116.933c-0.918,0-1.671-0.753-1.671-1.671v-1.673c0-0.919,0.753-1.671,1.671-1.671
					c0.92,0,1.675,0.752,1.675,1.671v1.673C223.45,116.18,222.695,116.933,221.775,116.933L221.775,116.933z M221.775,116.933"/>
				<path fill="#634034" d="M245.182,116.933c-0.92,0-1.671-0.753-1.671-1.671v-1.673c0-0.919,0.751-1.671,1.671-1.671
					c0.918,0,1.671,0.752,1.671,1.671v1.673C246.853,116.18,246.1,116.933,245.182,116.933L245.182,116.933z M245.182,116.933"/>
				<path fill="#E3A172" d="M233.479,128.68c-2.973,0-5.75-0.73-7.626-2.006c-0.767-0.52-0.963-1.56-0.443-2.323
					c0.519-0.762,1.56-0.959,2.322-0.441c1.315,0.894,3.462,1.429,5.747,1.429c2.283,0,4.434-0.535,5.745-1.429
					c0.767-0.521,1.806-0.321,2.322,0.441c0.521,0.764,0.323,1.804-0.439,2.323C239.233,127.949,236.452,128.68,233.479,128.68
					L233.479,128.68z M233.479,128.68"/>
				<path fill="#F5B47B" d="M218.852,127.741c-1.353-1.453-2.091-3.37-2.091-5.355V98.712c-3.812,0.774-6.686,4.146-6.686,8.19
					v3.344c-2.77,0-5.015,2.246-5.015,5.016s2.245,5.014,5.015,5.014v1.672c0,4.051,2.437,7.702,6.172,9.26l10.801,4.502
					c0.53,0.22,1.069,0.409,1.616,0.572C223.889,132.788,220.714,129.738,218.852,127.741L218.852,127.741z M218.852,127.741"/>
				<path fill="#43A0C5" d="M264.094,151.205c-0.318-2.553-2.079-4.698-4.521-5.513l-10.815-3.605l-10.263,6.608l-3.344,3.344
					h-3.342l-3.344-3.344l-10.265-6.608l-10.813,3.605c-2.444,0.814-4.201,2.96-4.52,5.513l-1.592,12.722l13.816,1.487v8.357h36.775
					v-8.357h14.002L264.094,151.205z M264.094,151.205"/>
				<g>
					<defs>
						<rect id="SVGID_3_" x="200.068" y="76.603" width="66.827" height="97.42"/>
					</defs>
					<clipPath id="SVGID_4_">
						<use xlink:href="#SVGID_3_"  overflow="visible"/>
					</clipPath>
					<path clip-path="url(#SVGID_4_)" fill="#2D8CB3" d="M215.092,166.674v-3.782c0-1.607-0.581-3.163-1.633-4.379l-9.199-10.617
						c-0.743,0.939-1.239,2.075-1.393,3.31l-1.75,13.97C203.778,165.335,210.851,166.163,215.092,166.674L215.092,166.674z
						 M215.092,166.674"/>
					<path clip-path="url(#SVGID_4_)" fill="#137AA2" d="M215.092,164.475l-13.78-1.531c-0.541-0.061-1.026,0.328-1.087,0.87
						l-0.151,1.364c-0.06,0.54,0.33,1.028,0.87,1.089l14.148,1.571V164.475z M215.092,164.475"/>
					<path clip-path="url(#SVGID_4_)" fill="#2D8CB3" d="M251.869,166.674v-3.782c0-1.607,0.579-3.163,1.631-4.379l9.199-10.617
						c0.743,0.939,1.239,2.075,1.395,3.31l1.746,13.97C263.181,165.335,256.108,166.163,251.869,166.674L251.869,166.674z
						 M251.869,166.674"/>
					<path clip-path="url(#SVGID_4_)" fill="#137AA2" d="M251.869,164.475l13.776-1.531c0.542-0.061,1.028,0.328,1.088,0.87
						l0.152,1.364c0.06,0.54-0.329,1.028-0.869,1.089l-14.147,1.571V164.475z M251.869,164.475"/>
				</g>
				<path fill="#2D8CB3" d="M222.704,140.057l5.761,8.639l-5.015,6.688l-6.689-13.373l3.624-2.415
					C221.153,139.08,222.191,139.288,222.704,140.057L222.704,140.057z M222.704,140.057"/>
				<path fill="#2D8CB3" d="M244.253,140.057l-5.759,8.639l5.017,6.688l6.686-13.373l-3.624-2.415
					C245.804,139.08,244.766,139.288,244.253,140.057L244.253,140.057z M244.253,140.057"/>
				<path fill="#2D8CB3" d="M233.479,165.414c-0.923,0-1.671-0.748-1.671-1.673v-11.702h3.342v11.702
					C235.15,164.666,234.401,165.414,233.479,165.414L233.479,165.414z M233.479,165.414"/>
				<path fill="#744B3F" d="M254.375,91.857c-0.943,0-1.822,0.244-2.609,0.641c-0.514-4.125-3.991-7.328-8.255-7.328
					c-2.926,0-5.491,1.508-6.985,3.782c-0.683-0.28-1.425-0.439-2.21-0.439c-0.783,0-1.527,0.159-2.211,0.439
					c-1.492-2.274-4.059-3.782-6.985-3.782c-4.614,0-8.358,3.742-8.358,8.358c0,4.617,3.744,8.359,8.358,8.359
					c2.383,0,4.521-1.008,6.043-2.606c0.909,0.586,1.989,0.936,3.153,0.936c1.163,0,2.243-0.35,3.154-0.936
					c1.521,1.598,3.658,2.606,6.041,2.606c2.082,0,3.966-0.79,5.427-2.051c0.854,2.177,2.961,3.723,5.438,3.723
					c3.23,0,5.853-2.62,5.853-5.851S257.605,91.857,254.375,91.857L254.375,91.857z M254.375,91.857"/>
				<path fill="#5E352F" d="M226.166,94.157c0,4.385-3.557,7.94-7.94,7.94c-4.387,0-7.942-3.555-7.942-7.94s3.556-7.942,7.942-7.942
					C222.609,86.215,226.166,89.771,226.166,94.157L226.166,94.157z M226.166,94.157"/>
			</g>
		</g>
	</g>
	<text transform="matrix(1 0 0 1 127.2275 77.5361)" fill="#D1D3D4" font-family="'ArialRoundedMTBold'" font-size="22.0046">BeGiTu</text>
</g>
</svg>
