<?xml version="1.0" encoding="utf-8"?>
<!-- Generator: Adobe Illustrator 16.0.0, SVG Export Plug-In . SVG Version: 6.00 Build 0)  -->
<!DOCTYPE svg PUBLIC "-//W3C//DTD SVG 1.1//EN" "http://www.w3.org/Graphics/SVG/1.1/DTD/svg11.dtd">
<svg version="1.1" id="Layer_1" xmlns="http://www.w3.org/2000/svg" xmlns:xlink="http://www.w3.org/1999/xlink" x="0px" y="0px"
	 width="335px" height="213px" viewBox="0 0 335 213" enable-background="new 0 0 335 213" xml:space="preserve">
<path fill="none" stroke="#C2B59B" stroke-width="3" stroke-miterlimit="10" d="M327.236,204.373H43.653
	c-18.271,0-33.084-14.541-33.084-32.48V6.702H294.15c18.273,0,33.086,14.542,33.086,32.481V204.373z"/>
<g>
	<rect id="XMLID_6_" x="234.984" y="61.604" fill="#D44E27" width="12.157" height="3.207"/>
	<path id="XMLID_13_" fill="#D44E27" d="M254.327,78.909c0.549,2.925-1.376,5.742-4.3,6.292l-4.421-23.503
		c2.926-0.55,5.742,1.375,6.292,4.3L254.327,78.909z"/>
	<polygon id="XMLID_574_" opacity="0.67" fill="#3E4143" points="248.525,77.224 253.274,73.309 252.148,67.329 247.442,71.459 	"/>
	<path id="XMLID_573_" opacity="0.67" fill="#3E4143" d="M249.526,82.542l4.813-3.538c-0.006-0.031-0.008-0.062-0.013-0.094
		l-0.431-2.292l-4.777,3.758L249.526,82.542z"/>
	<g id="XMLID_541_">
		<path id="XMLID_542_" fill="#D44E27" d="M264.142,112.018c-0.002-2.317-1.112-4.494-2.985-5.859l-15.002-10.926l-4.951-27.401
			c-1.669-9.247-9.719-15.972-19.115-15.972H82.849c-1.931,0-3.783,0.77-5.146,2.139c-1.361,1.37-2.122,3.226-2.113,5.157
			c0.091,17.513,0.212,41.027,0.212,41.027c-0.912,13.834,0.349,32.395,2.002,45.524h18.932c1.611,0,2.955-1.234,3.088-2.842
			c0.782-9.389,8.663-16.762,18.25-16.762c9.574,0,17.468,7.363,18.249,16.762c0.134,1.609,1.476,2.842,3.09,2.842h64.165v0.057
			h7.631c1.609,0,2.954-1.234,3.088-2.84c0.781-9.391,8.663-16.762,18.249-16.762c9.574,0,17.467,7.363,18.25,16.762
			c0.133,1.607,1.476,2.84,3.087,2.84h7.003v-0.057h3.299L264.142,112.018z"/>
	</g>
	<g id="XMLID_515_">
		<circle id="XMLID_1038_" fill="#3E4143" cx="118.073" cy="144.424" r="16.661"/>
		<circle id="XMLID_1037_" fill="#979A9B" cx="118.072" cy="144.424" r="11.061"/>
		<circle id="XMLID_1036_" fill="#666A6C" cx="118.072" cy="144.424" r="8.545"/>
		<circle id="XMLID_540_" fill="#3E4143" cx="118.072" cy="144.424" r="2.266"/>
		<circle id="XMLID_537_" fill="#3E4143" cx="118.072" cy="138.918" r="0.997"/>
		<circle id="XMLID_535_" fill="#3E4143" cx="118.072" cy="149.926" r="0.997"/>
		<circle id="XMLID_532_" fill="#3E4143" cx="121.964" cy="140.53" r="0.997"/>
		<path id="XMLID_523_" fill="#3E4143" d="M114.886,149.02c-0.39,0.391-1.021,0.391-1.411,0c-0.389-0.391-0.389-1.02,0-1.412
			c0.39-0.387,1.021-0.387,1.411,0C115.274,148,115.274,148.629,114.886,149.02z"/>
		<circle id="XMLID_522_" fill="#3E4143" cx="123.577" cy="144.423" r="0.997"/>
		<circle id="XMLID_517_" fill="#3E4143" cx="112.568" cy="144.423" r="0.997"/>
		<path id="XMLID_511_" fill="#3E4143" d="M121.26,149.02c-0.391-0.391-0.391-1.02,0-1.412c0.389-0.387,1.021-0.387,1.409,0
			c0.39,0.393,0.39,1.021,0,1.412C122.28,149.41,121.648,149.41,121.26,149.02z"/>
		<circle id="XMLID_507_" fill="#3E4143" cx="114.18" cy="140.53" r="0.998"/>
	</g>
	<path id="XMLID_545_" opacity="0.29" fill="#3E4143" d="M129.854,132.641c-6.507-6.504-17.056-6.504-23.562,0l11.78,11.783
		l11.781,11.779C136.359,149.697,136.359,139.148,129.854,132.641z"/>
	<path id="XMLID_1025_" opacity="0.67" fill="#3E4143" d="M223.633,60.421c0,0.654-0.503,1.183-1.122,1.183H91.924
		c-0.62,0-1.122-0.529-1.122-1.183c0-0.653,0.502-1.183,1.122-1.183h130.587C223.13,59.238,223.633,59.768,223.633,60.421z"/>
	<path id="XMLID_1022_" opacity="0.38" fill="#3E4143" d="M207.116,99.791c0,0.752-0.61,1.362-1.362,1.362h-6.056
		c-0.753,0-1.363-0.61-1.363-1.362c0-0.753,0.61-1.363,1.363-1.363h6.056C206.506,98.428,207.116,99.038,207.116,99.791z"/>
	<path id="XMLID_1019_" fill="#F2DFC7" d="M206.491,99.188c0,0.752-0.61,1.362-1.363,1.362h-6.055c-0.753,0-1.363-0.61-1.363-1.362
		s0.61-1.363,1.363-1.363h6.055C205.881,97.826,206.491,98.436,206.491,99.188z"/>
	<g id="XMLID_1007_">
		<path id="XMLID_1016_" fill="#A7DDE2" d="M182.903,70.367c-1.29,0-2.334,1.045-2.334,2.334v19.316
			c0,1.289,1.044,2.334,2.334,2.334h22.461c1.291,0,2.336-1.045,2.336-2.334V72.701c0-1.29-1.045-2.334-2.336-2.334H182.903z"/>
		<path id="XMLID_1015_" fill="#010101" d="M207.7,72.701c0-1.29-1.045-2.334-2.336-2.334h-22.461c-1.29,0-2.334,1.045-2.334,2.334
			v0.164h21.969c1.29,0,2.335,1.045,2.335,2.334v19.152h0.491c1.291,0,2.336-1.045,2.336-2.334V72.701z"/>
		<g id="XMLID_1011_" opacity="0.5">
			<path id="XMLID_1014_" fill="#FFFFFF" d="M201.748,87.687c-1.036-1.036-2.718-1.036-3.754,0l-6.665,6.665h7.508l2.911-2.911
				C202.785,90.405,202.785,88.724,201.748,87.687z"/>
			<path id="XMLID_1013_" fill="#FFFFFF" d="M188.438,77.104c-1.037-1.036-2.717-1.036-3.755,0l-4.113,4.115v7.507l7.868-7.87
				C189.473,79.819,189.473,78.14,188.438,77.104z"/>
			<path id="XMLID_1012_" fill="#FFFFFF" d="M186.637,94.352l11.434-11.434c1.037-1.038,1.037-2.717,0-3.754
				c-1.035-1.036-2.718-1.036-3.753,0l-13.311,13.31c-0.109,0.109-0.205,0.226-0.286,0.348c0.328,0.891,1.178,1.529,2.183,1.529
				H186.637z"/>
		</g>
		<path id="XMLID_1008_" fill="none" stroke="#414042" stroke-width="1.7694" stroke-miterlimit="10" d="M182.903,70.367
			c-1.29,0-2.334,1.045-2.334,2.334v19.316c0,1.289,1.044,2.334,2.334,2.334h22.461c1.291,0,2.336-1.045,2.336-2.334V72.701
			c0-1.29-1.045-2.334-2.336-2.334H182.903z"/>
	</g>
	<path id="XMLID_1006_" fill="#A7DDE2" d="M213.691,92.018c0,1.289,1.045,2.334,2.334,2.334h29.948l-4.312-23.985h-25.636
		c-1.289,0-2.334,1.045-2.334,2.334V92.018z"/>
	<path id="XMLID_1005_" fill="#010101" d="M234.583,94.352h3.878c-1.61-8.006-1.241-16.619-3.348-23.985h-19.088
		c-1.289,0-2.334,1.045-2.334,2.334v0.163h17.075L234.583,94.352z"/>
	<g id="XMLID_1001_" opacity="0.5">
		<path id="XMLID_1003_" fill="#FFFFFF" d="M221.56,81.005c-1.036-1.037-2.717-1.037-3.754,0l-4.114,4.115v7.508l7.868-7.869
			C222.597,83.723,222.597,82.042,221.56,81.005z"/>
		<path id="XMLID_462_" fill="#FFFFFF" d="M219.222,94.594c1.326,0.049,2.66,0.144,3.999,0.207l2.238-2.238
			c1.036-1.037,1.036-2.716,0-3.754c-1.037-1.036-2.717-1.036-3.755,0l-5.567,5.568C217.165,94.448,218.192,94.522,219.222,94.594z"
			/>
	</g>
	<path id="XMLID_1000_" fill="#414042" d="M245.799,93.468h-29.773c-0.799,0-1.449-0.652-1.449-1.451V72.702
		c0-0.8,0.65-1.45,1.449-1.45l25.793-0.013l-0.316-1.757h-25.477c-1.774,0-3.219,1.444-3.219,3.22v19.316
		c0,1.774,1.444,3.219,3.219,3.219h30.129C246.033,94.651,245.914,94.06,245.799,93.468z"/>
	<path id="XMLID_460_" opacity="0.88" fill="#3E4143" d="M236.046,57.777c-3.475-3.412-8.195-5.917-14.126-5.917h-99.572
		l7.705,5.917H236.046z"/>
	<polygon id="XMLID_977_" fill="#D44E27" points="240.976,97.794 237.825,97.794 232.229,67.17 235.379,67.17 	"/>
	<g id="XMLID_952_">
		<path id="XMLID_956_" opacity="0.37" fill="#3E4143" d="M255.612,110.335c0,1.171-0.951,2.124-2.123,2.124h-4.224
			c-1.172,0-2.124-0.953-2.124-2.124c0-1.174,0.952-2.124,2.124-2.124h4.224C254.661,108.211,255.612,109.161,255.612,110.335z"/>
		<path id="XMLID_953_" fill="#F2DFC7" d="M255.065,109.24c0,1.174-0.95,2.124-2.123,2.124h-4.223c-1.174,0-2.124-0.95-2.124-2.124
			c0-1.171,0.95-2.123,2.124-2.123h4.223C254.115,107.117,255.065,108.069,255.065,109.24z"/>
	</g>
	<g id="XMLID_945_">
		<path id="XMLID_949_" opacity="0.37" fill="#3E4143" d="M94.072,128.191c0,1.334-1.082,2.418-2.417,2.418h-4.805
			c-1.334,0-2.415-1.084-2.415-2.418s1.081-2.414,2.415-2.414h4.805C92.99,125.777,94.072,126.857,94.072,128.191z"/>
		<path id="XMLID_946_" fill="#F2DFC7" d="M93.45,126.949c0,1.334-1.082,2.414-2.416,2.414h-4.806c-1.335,0-2.417-1.08-2.417-2.414
			s1.082-2.418,2.417-2.418h4.806C92.368,124.531,93.45,125.615,93.45,126.949z"/>
	</g>
	<g id="XMLID_420_">
		<path id="XMLID_431_" opacity="0.37" fill="#3E4143" d="M92.406,59.023c0,0.983-0.795,1.779-1.777,1.779h-3.537
			c-0.982,0-1.777-0.796-1.777-1.779c0-0.981,0.795-1.778,1.777-1.778h3.537C91.611,57.245,92.406,58.042,92.406,59.023z"/>
		<path id="XMLID_427_" fill="#F2DFC7" d="M91.949,58.108c0,0.981-0.796,1.778-1.779,1.778h-3.536c-0.981,0-1.778-0.796-1.778-1.778
			c0-0.982,0.797-1.779,1.778-1.779h3.536C91.153,56.329,91.949,57.126,91.949,58.108z"/>
	</g>
	<rect id="XMLID_494_" x="144.941" y="139.973" fill="#3E4143" width="60.2" height="6.354"/>
	<path id="XMLID_939_" fill="#3E4143" d="M269.733,141.727c0,2.543-2.061,4.6-4.602,4.6h-5.036v-9.203h5.036
		C267.673,137.123,269.733,139.184,269.733,141.727z"/>
	<path id="XMLID_933_" fill="#3E4143" d="M266.937,127.758c0,1.574-1.276,2.852-2.851,2.852v-18.125c1.574,0,2.851,1.275,2.851,2.85
		V127.758z"/>
	<path id="XMLID_401_" fill="#F2DFC7" d="M270.434,121.553c0,2.98-1.566,5.396-3.497,5.396v-10.793
		C268.867,116.156,270.434,118.572,270.434,121.553z"/>
	<path id="XMLID_520_" fill="#D44E27" d="M118.072,117.869c-13.983,0-25.43,10.807-26.473,24.498
		c-0.066,0.861,0.23,1.711,0.816,2.342c0.587,0.633,1.411,0.998,2.273,0.998h2.045c1.611,0,2.955-1.234,3.088-2.842
		c0.782-9.389,8.663-16.762,18.25-16.762c9.574,0,17.468,7.363,18.249,16.762c0.134,1.609,1.476,2.842,3.09,2.842h2.044
		c0.863,0,1.688-0.363,2.275-0.996s0.882-1.482,0.815-2.344C143.502,128.678,132.059,117.869,118.072,117.869z"/>
	<path id="XMLID_438_" opacity="0.67" fill="#3E4143" d="M118.072,117.869c-13.983,0-25.43,10.807-26.473,24.498
		c-0.066,0.861,0.23,1.711,0.816,2.342c0.587,0.633,1.411,0.998,2.273,0.998h2.045c1.611,0,2.955-1.234,3.088-2.842
		c0.782-9.389,8.663-16.762,18.25-16.762c9.574,0,17.468,7.363,18.249,16.762c0.134,1.609,1.476,2.842,3.09,2.842h2.044
		c0.863,0,1.688-0.363,2.275-0.996s0.882-1.482,0.815-2.344C143.502,128.678,132.059,117.869,118.072,117.869z"/>
	<g id="XMLID_524_">
		<circle id="XMLID_553_" fill="#3E4143" cx="232.543" cy="144.48" r="16.661"/>
		<circle id="XMLID_552_" fill="#979A9B" cx="232.544" cy="144.48" r="11.061"/>
		<circle id="XMLID_551_" fill="#666A6C" cx="232.543" cy="144.48" r="8.543"/>
		<circle id="XMLID_550_" fill="#3E4143" cx="232.544" cy="144.48" r="2.266"/>
		<circle id="XMLID_549_" fill="#3E4143" cx="232.544" cy="138.975" r="0.997"/>
		<circle id="XMLID_548_" fill="#3E4143" cx="232.544" cy="149.984" r="0.997"/>
		<circle id="XMLID_547_" fill="#3E4143" cx="236.436" cy="140.588" r="0.997"/>
		<circle id="XMLID_546_" fill="#3E4143" cx="228.652" cy="148.371" r="0.997"/>
		<circle id="XMLID_544_" fill="#3E4143" cx="238.047" cy="144.479" r="0.997"/>
		<circle id="XMLID_538_" fill="#3E4143" cx="227.04" cy="144.479" r="0.997"/>
		<circle id="XMLID_526_" fill="#3E4143" cx="236.436" cy="148.371" r="0.997"/>
		<circle id="XMLID_525_" fill="#3E4143" cx="228.652" cy="140.588" r="0.997"/>
	</g>
	<path id="XMLID_519_" opacity="0.29" fill="#3E4143" d="M244.325,132.699c-6.507-6.508-17.056-6.508-23.563,0l11.782,11.781
		l11.781,11.779C250.831,149.756,250.831,139.205,244.325,132.699z"/>
	<path id="XMLID_492_" fill="#D44E27" d="M232.544,117.928c-13.983,0-25.43,10.807-26.474,24.498
		c-0.064,0.861,0.231,1.707,0.816,2.342c0.587,0.633,1.412,0.996,2.274,0.996h2.046c1.609,0,2.954-1.234,3.088-2.84
		c0.781-9.391,8.663-16.762,18.249-16.762c9.574,0,17.467,7.363,18.25,16.762c0.133,1.607,1.476,2.84,3.087,2.84h2.046
		c0.863,0,1.688-0.361,2.274-0.994c0.587-0.635,0.882-1.482,0.816-2.344C257.973,128.736,246.53,117.928,232.544,117.928z"/>
	<path id="XMLID_463_" opacity="0.67" fill="#3E4143" d="M232.544,117.928c-13.983,0-25.43,10.807-26.474,24.498
		c-0.064,0.861,0.231,1.707,0.816,2.342c0.587,0.633,1.412,0.996,2.274,0.996h2.046c1.609,0,2.954-1.234,3.088-2.84
		c0.781-9.391,8.663-16.762,18.249-16.762c9.574,0,17.467,7.363,18.25,16.762c0.133,1.607,1.476,2.84,3.087,2.84h2.046
		c0.863,0,1.688-0.361,2.274-0.994c0.587-0.635,0.882-1.482,0.816-2.344C257.973,128.736,246.53,117.928,232.544,117.928z"/>
	<g id="XMLID_558_">
		
			<path id="XMLID_559_" opacity="0.67" fill="none" stroke="#3E4143" stroke-width="1.8654" stroke-linejoin="round" stroke-miterlimit="10" d="
			M210.637,119.887V71.881c0-2.602-2.108-4.711-4.711-4.711h-23.51c-2.602,0-4.71,2.109-4.71,4.711v61.14h22.635
			C202.284,127.615,205.93,123.021,210.637,119.887z"/>
	</g>
	<path id="XMLID_479_" fill="#3E4143" d="M88.632,137.555h-9.185h-5.112h-1.167c-2.54,0-4.602,2.059-4.602,4.602
		c0,2.541,2.062,4.602,4.602,4.602h2.142h4.138h9.185V137.555z"/>
	<g id="XMLID_477_">
		<path id="XMLID_995_" fill="#3E4143" d="M167.676,113.631H88.481V76.858c0-2.519,2.043-4.56,4.561-4.56h70.073
			c2.519,0,4.561,2.041,4.561,4.56V113.631z"/>
		<g id="XMLID_986_">
			<g>
				<path fill="#D1D3D4" d="M163.115,72.299c2.519,0,4.561,2.041,4.561,4.56v36.772H88.481V76.858c0-2.519,2.043-4.56,4.561-4.56
					H163.115 M163.115,70.434H93.042c-3.543,0-6.426,2.882-6.426,6.425v36.772c0,1.03,0.835,1.865,1.865,1.865h79.194
					c1.03,0,1.865-0.835,1.865-1.865V76.858C169.541,73.315,166.658,70.434,163.115,70.434L163.115,70.434z"/>
			</g>
		</g>
		<rect id="XMLID_982_" x="88.481" y="109.952" opacity="0.89" fill="#3E4143" width="79.194" height="3.679"/>
		<g id="XMLID_859_">
			<g id="XMLID_911_" opacity="0.49">
				<path id="XMLID_930_" fill="#3E3F43" d="M95.627,85.057c0,3.53-2.862,6.392-6.393,6.392c-3.531,0-6.392-2.862-6.392-6.392v-9.37
					h12.784V85.057z"/>
				<path id="XMLID_927_" fill="#3E3F43" d="M108.411,85.057c0,3.53-2.862,6.392-6.393,6.392c-3.529,0-6.392-2.862-6.392-6.392
					v-9.37h12.784V85.057z"/>
				<path id="XMLID_924_" fill="#3E3F43" d="M121.196,85.057c0,3.53-2.863,6.392-6.393,6.392c-3.53,0-6.393-2.862-6.393-6.392v-9.37
					h12.785V85.057z"/>
				<path id="XMLID_921_" fill="#3E3F43" d="M133.981,85.057c0,3.53-2.862,6.392-6.394,6.392c-3.53,0-6.392-2.862-6.392-6.392v-9.37
					h12.785V85.057z"/>
				<path id="XMLID_918_" fill="#3E3F43" d="M159.55,85.057c0,3.53-2.862,6.392-6.392,6.392c-3.53,0-6.392-2.862-6.392-6.392v-9.37
					h12.783V85.057z"/>
				<path id="XMLID_915_" fill="#3E3F43" d="M146.767,85.057c0,3.53-2.862,6.392-6.395,6.392c-3.529,0-6.391-2.862-6.391-6.392
					v-9.37h12.785V85.057z"/>
				<path id="XMLID_912_" fill="#3E3F43" d="M172.336,85.057c0,3.53-2.862,6.392-6.393,6.392c-3.532,0-6.394-2.862-6.394-6.392
					v-9.37h12.786V85.057z"/>
			</g>
			<g id="XMLID_889_">
				<path id="XMLID_908_" fill="#0081B7" d="M95.627,79.313c0,3.53-2.862,6.392-6.393,6.392c-3.531,0-6.392-2.862-6.392-6.392
					v-5.017h12.784V79.313z"/>
				<path id="XMLID_905_" fill="#F6EDE4" d="M108.411,79.313c0,3.53-2.862,6.392-6.393,6.392c-3.529,0-6.392-2.862-6.392-6.392
					v-5.017h12.784V79.313z"/>
				<path id="XMLID_902_" fill="#0081B7" d="M121.196,79.313c0,3.53-2.863,6.392-6.393,6.392c-3.53,0-6.393-2.862-6.393-6.392
					v-5.017h12.785V79.313z"/>
				<path id="XMLID_899_" fill="#F6EDE4" d="M133.981,79.313c0,3.53-2.862,6.392-6.394,6.392c-3.53,0-6.392-2.862-6.392-6.392
					v-5.017h12.785V79.313z"/>
				<path id="XMLID_896_" fill="#F6EDE4" d="M159.55,79.313c0,3.53-2.862,6.392-6.392,6.392c-3.53,0-6.392-2.862-6.392-6.392v-5.017
					h12.783V79.313z"/>
				<path id="XMLID_893_" fill="#0081B7" d="M146.767,79.313c0,3.53-2.862,6.392-6.395,6.392c-3.529,0-6.391-2.862-6.391-6.392
					v-5.017h12.785V79.313z"/>
				<path id="XMLID_890_" fill="#0081B7" d="M172.336,79.313c0,3.53-2.862,6.392-6.393,6.392c-3.532,0-6.394-2.862-6.394-6.392
					v-5.017h12.786V79.313z"/>
			</g>
			<g id="XMLID_867_" opacity="0.54">
				<path id="XMLID_883_" fill="#3E3F43" d="M108.411,79.313c0,3.53-2.862,6.392-6.393,6.392c-3.529,0-6.392-2.862-6.392-6.392
					v-5.017h12.784V79.313z"/>
				<path id="XMLID_877_" fill="#3E3F43" d="M133.981,79.313c0,3.53-2.862,6.392-6.394,6.392c-3.53,0-6.392-2.862-6.392-6.392
					v-5.017h12.785V79.313z"/>
				<path id="XMLID_874_" fill="#3E3F43" d="M159.55,79.313c0,3.53-2.862,6.392-6.392,6.392c-3.53,0-6.392-2.862-6.392-6.392v-5.017
					h12.783V79.313z"/>
			</g>
			<rect id="XMLID_866_" x="121.196" y="61.804" fill="#F6EDE4" width="12.785" height="12.492"/>
			<polygon id="XMLID_865_" fill="#0081B7" points="144.9,61.804 133.36,61.804 133.981,74.296 146.767,74.296 			"/>
			<polygon id="XMLID_864_" fill="#F6EDE4" points="155.82,61.804 144.9,61.804 146.767,74.296 159.55,74.296 			"/>
			<polygon id="XMLID_863_" fill="#0081B7" points="166.74,61.804 155.82,61.804 159.55,74.296 172.336,74.296 			"/>
			<polygon id="XMLID_862_" fill="#0081B7" points="121.817,61.804 110.277,61.804 108.411,74.296 121.196,74.296 			"/>
			<polygon id="XMLID_861_" fill="#F6EDE4" points="110.277,61.804 99.357,61.804 95.627,74.296 108.411,74.296 			"/>
			<polygon id="XMLID_860_" fill="#0081B7" points="99.357,61.804 88.438,61.804 82.843,74.296 95.627,74.296 			"/>
		</g>
		<path id="XMLID_886_" opacity="0.35" fill="#3E3F43" d="M95.627,79.313c0,3.53-2.862,6.392-6.393,6.392
			c-3.531,0-6.392-2.862-6.392-6.392v-5.017h12.784V79.313z"/>
		<path id="XMLID_880_" opacity="0.35" fill="#3E3F43" d="M121.196,79.313c0,3.53-2.863,6.392-6.393,6.392
			c-3.53,0-6.393-2.862-6.393-6.392v-5.017h12.785V79.313z"/>
		<path id="XMLID_871_" opacity="0.35" fill="#3E3F43" d="M146.767,79.313c0,3.53-2.862,6.392-6.395,6.392
			c-3.529,0-6.391-2.862-6.391-6.392v-5.017h12.785V79.313z"/>
		<path id="XMLID_868_" opacity="0.35" fill="#3E3F43" d="M172.336,79.313c0,3.53-2.862,6.392-6.393,6.392
			c-3.532,0-6.394-2.862-6.394-6.392v-5.017h12.786V79.313z"/>
		<path id="XMLID_983_" fill="#F2DFC7" d="M171.115,107.67c0,1.26-1.021,2.282-2.28,2.282H86.343c-1.26,0-2.279-1.022-2.279-2.282
			c0-1.257,1.02-2.277,2.279-2.277h82.492C170.095,105.393,171.115,106.413,171.115,107.67z"/>
		<rect id="XMLID_473_" x="97.872" y="109.952" fill="#F2DFC7" width="2.589" height="11.991"/>
		<rect id="XMLID_484_" x="156.337" y="109.952" fill="#F2DFC7" width="2.592" height="11.991"/>
		<polygon id="XMLID_528_" opacity="0.89" fill="#3E4143" points="100.461,109.952 100.461,121.943 107.612,109.952 		"/>
		<polygon id="XMLID_530_" opacity="0.89" fill="#3E4143" points="158.929,109.952 158.929,121.943 166.079,109.952 		"/>
	</g>
	<g>
		<g>
			<g>
				<path fill="#F2DFC7" d="M183.712,116.24c-0.176-0.201-0.287-0.473-0.336-0.818c-0.064-0.449-0.019-0.955,0.132-1.51
					c0.151-0.553,0.403-1.086,0.751-1.605c0.348-0.516,0.797-0.959,1.343-1.327c0.548-0.366,1.164-0.596,1.853-0.677
					c0.395-0.023,0.73,0.077,0.999,0.304c0.271,0.228,0.432,0.515,0.483,0.866c0.041,0.273,0,0.551-0.119,0.814
					c-0.198,0.42-0.562,0.795-1.087,1.131c-0.344,0.25-0.802,0.498-1.374,0.752c-0.573,0.252-1.108,0.424-1.618,0.516
					c-0.039,0.264-0.054,0.434-0.041,0.508c0.026,0.199,0.162,0.334,0.405,0.408c0.102,0.025,0.25,0.029,0.44,0.006
					c0.43-0.053,0.867-0.225,1.318-0.518c0.444-0.297,0.767-0.674,0.955-1.139c0.042,0.025,0.08,0.146,0.109,0.375
					c0.011,0.023,0.071,0.066,0.174,0.131c0.104,0.066,0.156,0.115,0.162,0.145c-0.053,0.35-0.223,0.682-0.514,0.996
					c-0.296,0.316-0.66,0.58-1.095,0.799c-0.438,0.221-0.867,0.355-1.286,0.408C184.584,116.896,184.031,116.711,183.712,116.24z
					 M187.694,111.623c-0.097-0.088-0.261-0.123-0.494-0.094c-0.152,0.016-0.327,0.07-0.52,0.16
					c-0.406,0.205-0.745,0.445-1.02,0.719c-0.277,0.275-0.516,0.623-0.723,1.045c0.134-0.039,0.399-0.137,0.801-0.289
					c0.4-0.15,0.689-0.262,0.873-0.338c0.383-0.197,0.677-0.389,0.883-0.58c0.207-0.186,0.302-0.346,0.279-0.48
					C187.771,111.727,187.741,111.68,187.694,111.623z"/>
			</g>
			<g>
				<path fill="#F2DFC7" d="M194.761,105.888c0.087-0.064,0.151-0.104,0.191-0.12c0.039-0.018,0.088-0.035,0.139-0.05
					c0.057-0.018,0.135-0.043,0.246-0.082c0.062-0.023,0.119-0.04,0.169-0.045c0.116-0.011,0.219-0.011,0.31,0.006
					c0.089,0.017,0.152,0.047,0.182,0.093l-3.103,10.162c-0.065,0.012-0.135,0-0.208-0.027c-0.074-0.027-0.145-0.062-0.216-0.113
					c-0.074-0.049-0.138-0.084-0.19-0.117c-0.235,0.029-0.377,0.014-0.425-0.045c0.007-0.072,0.012-0.145,0.021-0.217
					s0.023-0.15,0.043-0.227c0.019-0.078,0.038-0.156,0.058-0.232c0.018-0.076,0.029-0.17,0.029-0.271
					c-0.796,1.049-1.486,1.605-2.075,1.68c-0.44,0.055-0.811-0.186-1.107-0.709c-0.066-0.123-0.116-0.287-0.146-0.49
					c-0.067-0.463-0.008-1.023,0.168-1.68c0.182-0.652,0.485-1.311,0.922-1.967c0.429-0.657,0.977-1.219,1.65-1.684
					c0.671-0.473,1.449-0.758,2.331-0.863L194.761,105.888z M193.312,109.976c-0.663,0.191-1.252,0.581-1.771,1.165
					s-0.913,1.213-1.188,1.891c-0.273,0.676-0.383,1.205-0.326,1.588c0.02,0.154,0.065,0.256,0.133,0.312
					c0.198-0.021,0.411-0.146,0.645-0.373c0.23-0.219,0.432-0.457,0.594-0.697c0.165-0.242,0.365-0.545,0.595-0.92
					c0.229-0.369,0.388-0.611,0.474-0.723c0.117-0.293,0.277-0.693,0.479-1.207C193.149,110.496,193.27,110.154,193.312,109.976z"/>
			</g>
			<g>
				<path fill="#F2DFC7" d="M194.545,114.926c-0.173-0.201-0.287-0.477-0.336-0.824c-0.065-0.447-0.021-0.947,0.131-1.502
					s0.4-1.09,0.749-1.607c0.35-0.512,0.795-0.957,1.343-1.324c0.55-0.371,1.166-0.598,1.855-0.682
					c0.395-0.023,0.727,0.079,1.001,0.306c0.27,0.229,0.432,0.519,0.479,0.868c0.04,0.275,0,0.547-0.117,0.812
					c-0.2,0.42-0.564,0.793-1.091,1.129c-0.342,0.252-0.799,0.504-1.369,0.754c-0.575,0.254-1.114,0.424-1.622,0.512
					c-0.038,0.266-0.05,0.439-0.04,0.516c0.027,0.189,0.164,0.332,0.405,0.406c0.106,0.025,0.252,0.025,0.438,0.004
					c0.429-0.051,0.869-0.225,1.32-0.52c0.447-0.293,0.767-0.67,0.957-1.135c0.042,0.023,0.076,0.146,0.109,0.371
					c0.012,0.023,0.067,0.068,0.174,0.133c0.102,0.066,0.155,0.115,0.162,0.146c-0.049,0.348-0.224,0.678-0.519,0.992
					c-0.291,0.314-0.655,0.584-1.094,0.801c-0.437,0.221-0.862,0.355-1.283,0.404C195.414,115.584,194.866,115.395,194.545,114.926z
					 M198.523,110.312c-0.096-0.088-0.259-0.124-0.489-0.095c-0.153,0.016-0.327,0.069-0.517,0.16
					c-0.41,0.205-0.751,0.445-1.028,0.717c-0.273,0.275-0.514,0.627-0.716,1.047c0.131-0.041,0.396-0.137,0.799-0.287
					c0.396-0.15,0.689-0.268,0.871-0.344c0.385-0.194,0.679-0.389,0.884-0.575c0.207-0.185,0.301-0.349,0.279-0.481
					C198.602,110.412,198.576,110.363,198.523,110.312z"/>
			</g>
			<g>
				<path fill="#F2DFC7" d="M202.417,105.686c0.074-0.034,0.175-0.073,0.311-0.129c0.14-0.051,0.269-0.083,0.394-0.101
					c0.098-0.011,0.171-0.005,0.22,0.022c-0.04,0.205-0.098,0.426-0.177,0.667c-0.081,0.237-0.239,0.693-0.475,1.364
					c-0.235,0.673-0.427,1.233-0.575,1.686c-0.149,0.452-0.285,0.905-0.417,1.364c0.109-0.078,0.291-0.221,0.545-0.424
					s0.504-0.411,0.754-0.623c0.298-0.252,0.58-0.484,0.837-0.707c0.261-0.227,0.454-0.389,0.58-0.498
					c0.062,0.018,0.104,0.094,0.12,0.229c0.018,0.106,0.023,0.207,0.021,0.305c0.003,0.027,0.044,0.072,0.127,0.126
					c0.081,0.056,0.165,0.112,0.245,0.161c0.084,0.051,0.152,0.103,0.206,0.142c0.055,0.042,0.086,0.084,0.089,0.126
					c-0.437,0.295-0.774,0.533-1.006,0.712c-0.233,0.178-0.847,0.659-1.837,1.438c0.122,0.092,0.318,0.242,0.596,0.459
					c0.277,0.219,0.626,0.52,1.045,0.904c0.416,0.377,0.763,0.727,1.029,1.043c-0.007,0.043-0.163,0.09-0.465,0.127
					c-0.307,0.039-0.509,0.084-0.606,0.127c-0.02,0.01-0.077,0.07-0.18,0.184c-0.098,0.115-0.202,0.18-0.31,0.189
					c-0.195-0.217-0.424-0.469-0.698-0.766c-0.274-0.295-0.482-0.512-0.63-0.662c-0.148-0.145-0.296-0.299-0.45-0.453
					c-0.154-0.152-0.295-0.299-0.418-0.428l-0.941,2.904c-0.077,0.006-0.145-0.01-0.203-0.051c-0.058-0.045-0.128-0.107-0.205-0.188
					c-0.08-0.082-0.143-0.133-0.188-0.15c-0.041-0.018-0.123-0.039-0.237-0.061c-0.111-0.027-0.209-0.059-0.281-0.098
					c-0.073-0.037-0.114-0.096-0.129-0.164c0.058-0.193,0.156-0.512,0.294-0.957c0.137-0.447,0.295-0.969,0.477-1.562
					c0.18-0.596,0.319-1.043,0.418-1.357c0.096-0.307,0.172-0.559,0.228-0.752c0.009,0-0.007,0.037-0.038,0.107
					c-0.029,0.081-0.049,0.13-0.055,0.158c-0.01,0.028-0.014,0.051-0.016,0.061c0-0.006,0.067-0.24,0.204-0.707
					c0.136-0.464,0.25-0.845,0.341-1.145c0.093-0.3,0.233-0.76,0.424-1.384c0.191-0.62,0.314-1.023,0.367-1.205
					c0.045-0.039,0.098-0.062,0.16-0.068c0.053-0.004,0.137,0,0.253,0.018C202.281,105.686,202.364,105.692,202.417,105.686z"/>
			</g>
			<g>
				<path fill="#F2DFC7" d="M209.445,107.715c0.02-0.037,0.062-0.094,0.126-0.172c0.065-0.074,0.104-0.137,0.121-0.174
					c0.239-0.028,0.438-0.045,0.597-0.053c0.116-0.01,0.199-0.006,0.255,0.021c0.055,0.025,0.087,0.048,0.102,0.065l-2.055,6.475
					c-0.033,0.031-0.069,0.045-0.119,0.049c-0.03,0.002-0.077,0.002-0.139-0.01c-0.066-0.004-0.115-0.016-0.156-0.031
					c-0.044-0.016-0.094-0.027-0.155-0.047c-0.045,0.012-0.126,0.051-0.24,0.113s-0.197,0.094-0.248,0.102
					c-0.071,0.01-0.114-0.023-0.123-0.094c-0.022-0.143,0.062-0.418,0.253-0.832c-0.104,0.168-0.307,0.371-0.611,0.6
					c-0.303,0.236-0.565,0.389-0.785,0.469c-0.081,0.025-0.151,0.041-0.213,0.049c-0.162,0.021-0.337,0.01-0.527-0.035
					c-0.189-0.041-0.359-0.119-0.508-0.219c-0.146-0.102-0.237-0.221-0.271-0.352c-0.063-0.141-0.106-0.297-0.13-0.469
					c-0.04-0.279-0.013-0.604,0.077-0.973c0.096-0.373,0.295-0.83,0.599-1.381c0.426-0.785,0.965-1.469,1.617-2.063
					c0.653-0.589,1.345-0.927,2.084-1.018C209.141,107.715,209.291,107.709,209.445,107.715z M209.047,108.705
					c-0.492,0.125-0.997,0.463-1.507,1.008c-0.509,0.543-0.917,1.143-1.219,1.805c-0.307,0.656-0.43,1.193-0.37,1.609
					c0.237-0.041,0.46-0.129,0.669-0.275c0.207-0.141,0.397-0.324,0.574-0.545c0.174-0.223,0.321-0.443,0.446-0.666
					c0.121-0.218,0.275-0.516,0.456-0.883C208.638,109.685,208.952,108.998,209.047,108.705z"/>
			</g>
			<g>
				<path fill="#F2DFC7" d="M213.613,103.505c0.146-0.02,0.223-0.011,0.227,0.018c0.032,0.011,0.051,0.039,0.057,0.083
					c0.023,0.169-0.052,0.516-0.231,1.048c-0.177,0.533-0.427,1.225-0.74,2.073c-0.316,0.845-0.472,1.306-0.477,1.378
					c0.079-0.066,0.245-0.199,0.493-0.418c0.249-0.211,0.465-0.377,0.642-0.479c0.181-0.103,0.361-0.169,0.553-0.193
					c0.295-0.034,0.595,0.042,0.908,0.235c0.18,0.112,0.285,0.275,0.314,0.49c0.022,0.156,0.017,0.322-0.02,0.502
					c-0.036,0.174-0.085,0.371-0.152,0.583c-0.067,0.215-0.141,0.452-0.221,0.717c-0.389,1.51-0.742,2.751-1.069,3.716
					c-0.072,0.008-0.139,0.008-0.193,0c-0.059-0.01-0.117-0.029-0.184-0.057c-0.068-0.031-0.116-0.051-0.142-0.07
					c-0.028-0.018-0.072-0.045-0.125-0.076c-0.189-0.068-0.332-0.129-0.431-0.191c-0.096-0.059-0.158-0.137-0.185-0.23
					c0.034-0.127,0.092-0.354,0.185-0.676c0.087-0.32,0.185-0.646,0.29-0.984c0.09-0.313,0.174-0.593,0.256-0.829
					c0.078-0.237,0.154-0.459,0.221-0.655c0.074-0.203,0.144-0.41,0.217-0.628c0.068-0.215,0.144-0.444,0.212-0.677
					c-0.481,0.166-0.87,0.395-1.163,0.699c-0.294,0.295-0.533,0.659-0.72,1.078c-0.183,0.419-0.405,1.029-0.659,1.83
					c-0.256,0.803-0.468,1.436-0.642,1.896c-0.129,0.018-0.24,0.006-0.331-0.027c-0.089-0.041-0.169-0.088-0.236-0.145
					c-0.066-0.055-0.126-0.105-0.179-0.154c-0.096-0.045-0.193-0.088-0.296-0.145c-0.106-0.049-0.177-0.121-0.214-0.213
					c0.093-0.279,0.214-0.658,0.356-1.145c0.142-0.482,0.277-0.929,0.403-1.346c0.126-0.414,0.236-0.762,0.328-1.049
					c0.096-0.287,0.189-0.553,0.288-0.819c0.099-0.29,0.277-0.829,0.539-1.616c0.259-0.788,0.448-1.357,0.568-1.713
					c0.122-0.354,0.255-0.72,0.4-1.093c0.145-0.376,0.233-0.579,0.272-0.6c0.003-0.011,0.012-0.028,0.024-0.062
					c0.015-0.031,0.034-0.062,0.056-0.09c0.021-0.025,0.046-0.039,0.074-0.044c0.059-0.005,0.12,0.025,0.185,0.096
					c0.074,0.069,0.142,0.101,0.203,0.096c0.029-0.006,0.085-0.023,0.152-0.057C213.502,103.528,213.562,103.511,213.613,103.505z"
					/>
			</g>
		</g>
		<g>
			<g>
				<path fill="#F2DFC7" d="M189.924,126.805c-1.266,0.484-2.296,0.918-3.089,1.293c-0.794,0.375-1.455,0.727-1.99,1.059
					c-0.415,0.262-0.75,0.494-1,0.713c-0.256,0.219-0.513,0.461-0.774,0.727c-0.109,0.09-0.179,0.139-0.213,0.164
					c-0.261,0.162-0.553,0.238-0.878,0.229c-0.323-0.012-0.55-0.088-0.676-0.229c-0.06-0.094-0.017-0.252,0.126-0.484
					c0.143-0.23,0.411-0.516,0.797-0.854c0.39-0.34,0.9-0.711,1.537-1.104c1.479-0.926,3.355-1.807,5.626-2.633
					c1.37-0.496,2.711-0.92,4.023-1.268c1.309-0.344,2.4-0.564,3.271-0.672c0.872-0.102,1.399-0.076,1.581,0.088
					c0.073,0.076,0.073,0.193,0.008,0.336c-0.069,0.148-0.181,0.27-0.336,0.365c-0.064,0.029-0.516,0.145-1.345,0.346
					c-0.833,0.203-1.527,0.371-2.087,0.51c-0.555,0.137-1.262,0.33-2.121,0.582C191.523,126.225,190.704,126.502,189.924,126.805z"
					/>
			</g>
		</g>
		<g>
			<g>
				<path fill="#F2DFC7" d="M201.044,126.449c-0.03-0.043-0.05-0.096-0.06-0.154c-0.015-0.094,0.003-0.188,0.048-0.285
					c0.045-0.1,0.113-0.184,0.199-0.248c0.095-0.076,0.196-0.117,0.309-0.135c0.075-0.008,0.148,0,0.216,0.025
					s0.121,0.066,0.156,0.119c0.031,0.041,0.051,0.094,0.06,0.152c0.014,0.094-0.002,0.188-0.048,0.287
					c-0.042,0.096-0.113,0.178-0.202,0.25c-0.092,0.072-0.192,0.119-0.308,0.131c-0.076,0.012-0.146,0.002-0.21-0.021
					C201.137,126.541,201.083,126.502,201.044,126.449z"/>
			</g>
			<g>
				<path fill="#F2DFC7" d="M202.413,126.016c-0.066-0.064-0.111-0.178-0.132-0.342c-0.026-0.174-0.019-0.377,0.031-0.604
					c0.049-0.229,0.139-0.461,0.275-0.705c0.138-0.24,0.329-0.467,0.569-0.674c0.239-0.215,0.532-0.383,0.878-0.512
					c0.072-0.023,0.129-0.039,0.164-0.043c0.106-0.012,0.203,0,0.299,0.035c0.089,0.037,0.148,0.078,0.176,0.125
					c0.02-0.023,0.048-0.039,0.082-0.045c0.067-0.004,0.141,0.016,0.22,0.062c0.076,0.045,0.136,0.098,0.18,0.154
					c0.004,0.049-0.044,0.141-0.146,0.281c-0.103,0.141-0.216,0.277-0.34,0.404c-0.124,0.129-0.212,0.197-0.26,0.203
					c0.009,0-0.008-0.002-0.051-0.006c-0.041-0.008-0.066-0.01-0.075-0.008l-0.099-0.137c-0.027-0.008-0.063-0.02-0.108-0.037
					c-0.045-0.016-0.07-0.045-0.076-0.088c0.025-0.055,0.049-0.109,0.066-0.162c0.024-0.051,0.051-0.107,0.088-0.168
					s0.086-0.125,0.146-0.197c-0.217,0.062-0.435,0.23-0.656,0.494c-0.22,0.268-0.397,0.562-0.531,0.883
					c-0.133,0.322-0.188,0.572-0.164,0.754c0.017,0.096,0.047,0.162,0.102,0.197c0.081,0.039,0.174,0.051,0.274,0.039
					c0.199-0.025,0.399-0.135,0.592-0.326c0.193-0.197,0.332-0.406,0.407-0.641c0.025,0.031,0.035,0.059,0.038,0.088
					c0,0.016,0,0.031-0.003,0.045c-0.002,0.01-0.002,0.02-0.002,0.037c-0.002,0.016-0.002,0.025-0.004,0.039
					c0.004,0.004,0.015,0.027,0.04,0.068s0.039,0.09,0.048,0.139c-0.025,0.174-0.088,0.33-0.19,0.479
					c-0.1,0.146-0.232,0.266-0.394,0.361c-0.158,0.096-0.322,0.154-0.491,0.174C202.987,126.43,202.666,126.309,202.413,126.016z"/>
			</g>
			<g>
				<path fill="#F2DFC7" d="M205.337,126.07c-0.332-0.113-0.525-0.355-0.577-0.727c-0.027-0.184-0.016-0.381,0.034-0.596
					c0.048-0.213,0.13-0.43,0.242-0.641c0.113-0.217,0.256-0.416,0.424-0.604c0.17-0.189,0.36-0.352,0.576-0.484
					c0.113-0.078,0.236-0.123,0.362-0.137c0.139-0.016,0.267,0.002,0.391,0.061c0.122,0.059,0.227,0.143,0.312,0.246
					c0.087,0.102,0.146,0.211,0.175,0.318c0.031,0.213,0.017,0.471-0.045,0.76c-0.062,0.293-0.161,0.578-0.291,0.854
					c-0.136,0.275-0.304,0.506-0.5,0.695c-0.195,0.189-0.404,0.295-0.628,0.326C205.649,126.16,205.493,126.137,205.337,126.07z
					 M206.527,123.52c-0.029-0.012-0.064-0.014-0.102-0.012c-0.131,0.018-0.272,0.119-0.426,0.303
					c-0.15,0.186-0.268,0.361-0.356,0.521c-0.089,0.174-0.156,0.357-0.2,0.547c-0.048,0.191-0.063,0.35-0.043,0.477
					c0.017,0.125,0.063,0.199,0.143,0.223c0.169-0.021,0.321-0.098,0.452-0.229c0.134-0.131,0.264-0.324,0.397-0.584
					c0.048-0.1,0.089-0.219,0.13-0.354c0.035-0.143,0.063-0.275,0.08-0.404c0.018-0.129,0.018-0.236,0.005-0.322
					C206.595,123.592,206.568,123.539,206.527,123.52z"/>
			</g>
			<g>
				<path fill="#F2DFC7" d="M209.785,123.119c0.109-0.096,0.272-0.217,0.489-0.367c0.224-0.146,0.431-0.23,0.632-0.256
					c0.112-0.012,0.205,0.01,0.275,0.059c0.112,0.082,0.176,0.189,0.194,0.322c0.013,0.072,0.01,0.148-0.002,0.227
					c-0.011,0.082-0.029,0.172-0.056,0.266c-0.027,0.096-0.052,0.186-0.078,0.275c-0.067,0.283-0.141,0.574-0.216,0.875
					c-0.076,0.303-0.143,0.543-0.208,0.729c-0.062,0.182-0.117,0.281-0.171,0.297c-0.061,0.006-0.115-0.014-0.157-0.049
					c-0.042-0.041-0.071-0.062-0.101-0.066c-0.017-0.008-0.056-0.012-0.121-0.018c-0.063-0.006-0.101-0.014-0.109-0.021
					c-0.017-0.043-0.025-0.074-0.025-0.094c-0.02-0.127,0-0.289,0.062-0.49c0.059-0.197,0.146-0.451,0.264-0.748
					c0.116-0.299,0.202-0.533,0.261-0.703c0.059-0.174,0.082-0.305,0.067-0.395c-0.204,0.096-0.378,0.211-0.521,0.354
					c-0.143,0.143-0.265,0.314-0.36,0.514c-0.043,0.135-0.107,0.332-0.195,0.59c-0.088,0.262-0.185,0.533-0.296,0.822
					c-0.11,0.283-0.184,0.43-0.225,0.438c-0.046,0.006-0.078,0.004-0.104,0c-0.029-0.008-0.056-0.016-0.079-0.033
					c-0.025-0.016-0.054-0.031-0.086-0.053c-0.033-0.012-0.068-0.014-0.107-0.012c-0.043,0.006-0.067-0.002-0.082-0.012
					c-0.013-0.012-0.023-0.041-0.033-0.092c-0.008-0.115,0.014-0.264,0.072-0.449c0.057-0.182,0.141-0.416,0.251-0.701
					c0.107-0.283,0.189-0.516,0.243-0.695c0.054-0.178,0.074-0.322,0.061-0.418c-0.152,0.055-0.279,0.121-0.386,0.195
					c-0.105,0.082-0.196,0.164-0.269,0.25c-0.074,0.088-0.146,0.189-0.22,0.307c-0.026,0.078-0.064,0.217-0.127,0.406
					c-0.059,0.193-0.143,0.432-0.244,0.713c-0.104,0.281-0.217,0.553-0.343,0.818c-0.039,0.002-0.076-0.006-0.104-0.023
					c-0.031-0.016-0.061-0.041-0.091-0.072c-0.031-0.033-0.051-0.053-0.066-0.059c-0.012-0.006-0.046-0.006-0.102-0.004
					c-0.056,0.004-0.102,0-0.135-0.012c-0.033-0.004-0.054-0.031-0.062-0.074c0.231-0.695,0.407-1.205,0.525-1.527
					c0.045-0.127,0.126-0.373,0.241-0.73c0.114-0.355,0.185-0.553,0.213-0.582c0.016-0.018,0.034-0.029,0.054-0.029
					c0.017-0.002,0.044,0.006,0.081,0.027c0.04,0.018,0.064,0.025,0.081,0.025c0.019-0.006,0.049-0.02,0.098-0.047
					c0.052-0.025,0.085-0.043,0.104-0.045c0.025-0.002,0.051,0.008,0.071,0.025c-0.007,0.041-0.014,0.098-0.032,0.166
					c-0.017,0.068-0.03,0.119-0.037,0.145c-0.006,0.029-0.013,0.07-0.013,0.123c0.089-0.074,0.18-0.148,0.272-0.225
					c0.092-0.072,0.186-0.141,0.28-0.197c0.091-0.055,0.183-0.088,0.269-0.1c0.125-0.016,0.235,0.021,0.328,0.113
					c0.037,0.033,0.06,0.088,0.07,0.162c0.006,0.039,0.01,0.074,0.006,0.098C209.788,123.086,209.788,123.104,209.785,123.119z"/>
			</g>
		</g>
		<g>
			<g>
				<path fill="#F2DFC7" d="M191.662,117.428c0.021-0.039,0.062-0.094,0.128-0.176c0.063-0.072,0.103-0.133,0.121-0.178
					c0.236-0.025,0.436-0.043,0.593-0.045c0.115-0.014,0.202-0.008,0.256,0.016c0.052,0.025,0.089,0.051,0.106,0.068l-2.058,6.473
					c-0.031,0.029-0.074,0.043-0.117,0.051c-0.035,0.002-0.083,0-0.144-0.008c-0.062-0.01-0.116-0.02-0.155-0.037
					c-0.043-0.014-0.095-0.027-0.157-0.043c-0.044,0.01-0.122,0.049-0.237,0.109c-0.114,0.062-0.197,0.1-0.247,0.102
					c-0.071,0.012-0.116-0.023-0.127-0.092c-0.02-0.143,0.065-0.418,0.253-0.83c-0.102,0.168-0.305,0.371-0.608,0.6
					c-0.305,0.232-0.566,0.389-0.786,0.467c-0.079,0.023-0.15,0.043-0.212,0.051c-0.163,0.018-0.339,0.008-0.529-0.035
					c-0.19-0.045-0.358-0.117-0.504-0.221c-0.146-0.102-0.239-0.219-0.274-0.35c-0.062-0.141-0.106-0.299-0.131-0.467
					c-0.038-0.279-0.011-0.605,0.082-0.979c0.095-0.369,0.294-0.83,0.598-1.379c0.425-0.781,0.964-1.469,1.614-2.062
					c0.653-0.59,1.349-0.928,2.088-1.018C191.358,117.428,191.506,117.422,191.662,117.428z M191.263,118.414
					c-0.493,0.129-0.996,0.467-1.505,1.006c-0.512,0.547-0.919,1.145-1.225,1.807c-0.302,0.658-0.426,1.195-0.366,1.609
					c0.238-0.039,0.46-0.127,0.669-0.271c0.208-0.143,0.4-0.326,0.573-0.551c0.175-0.219,0.322-0.439,0.446-0.664
					c0.123-0.219,0.278-0.516,0.459-0.879C190.853,119.391,191.169,118.705,191.263,118.414z"/>
			</g>
			<g>
				<path fill="#F2DFC7" d="M195.953,122.889c-0.104,0.014-0.194-0.014-0.271-0.084c-0.078-0.066-0.154-0.109-0.227-0.127
					c-0.077-0.021-0.163-0.029-0.27-0.027c-0.104,0.006-0.179-0.002-0.223-0.025c-0.049-0.021-0.079-0.072-0.088-0.145
					c-0.025-0.244,0.02-0.557,0.123-0.941c0.104-0.383,0.274-0.91,0.512-1.58c0.241-0.668,0.405-1.139,0.495-1.406
					c0.089-0.271,0.14-0.512,0.15-0.723c-0.234,0.09-0.459,0.234-0.675,0.432c-0.213,0.199-0.417,0.424-0.613,0.686
					c-0.193,0.258-0.349,0.48-0.466,0.664c-0.121,0.188-0.264,0.42-0.441,0.703c-0.052,0.207-0.169,0.58-0.355,1.119
					c-0.181,0.541-0.433,1.174-0.747,1.904c-0.124,0.018-0.214,0.01-0.271-0.018c-0.055-0.029-0.104-0.08-0.154-0.145
					c-0.043-0.072-0.086-0.119-0.123-0.15c-0.067-0.037-0.154-0.062-0.256-0.076c-0.103-0.01-0.18-0.031-0.23-0.064
					c-0.054-0.027-0.087-0.088-0.099-0.174c0.029-0.086,0.11-0.322,0.242-0.715c0.13-0.389,0.248-0.742,0.361-1.066
					c0.107-0.324,0.223-0.652,0.344-0.988c0.125-0.338,0.227-0.609,0.309-0.826c0.297-0.891,0.484-1.445,0.561-1.66
					c0.076-0.213,0.135-0.363,0.183-0.459c0.024-0.049,0.057-0.074,0.089-0.08c0.054-0.004,0.136,0.027,0.243,0.092
					c0.107,0.062,0.18,0.094,0.211,0.088c0.042-0.004,0.118-0.039,0.225-0.088c0.106-0.053,0.188-0.08,0.241-0.086
					c0.071-0.008,0.122,0.006,0.159,0.041c-0.021,0.15-0.046,0.275-0.085,0.371c-0.04,0.096-0.106,0.262-0.203,0.488
					c0.11-0.086,0.233-0.188,0.37-0.299c0.141-0.119,0.277-0.225,0.414-0.318c0.138-0.094,0.278-0.176,0.426-0.238
					c0.143-0.064,0.281-0.102,0.424-0.119c0.239-0.029,0.483,0.02,0.731,0.143c0.287,0.166,0.454,0.428,0.51,0.785
					c0.074,0.541-0.121,1.389-0.591,2.545c-0.187,0.469-0.332,0.85-0.429,1.145c-0.095,0.295-0.173,0.533-0.231,0.723
					C196.168,122.375,196.076,122.607,195.953,122.889z"/>
			</g>
			<g>
				<path fill="#F2DFC7" d="M202.799,116.088c0.07-0.008,0.171-0.033,0.306-0.08c0.135-0.045,0.236-0.072,0.297-0.076
					c0.065-0.006,0.116,0,0.153,0.027c-0.032,0.146-0.194,0.65-0.486,1.502c-0.291,0.855-0.575,1.67-0.847,2.438
					c-0.274,0.77-0.441,1.221-0.5,1.354c-0.079,0.193-0.211,0.588-0.396,1.189c-0.186,0.596-0.324,1.033-0.42,1.305
					c-0.094,0.275-0.219,0.594-0.384,0.953c-0.164,0.363-0.317,0.611-0.466,0.748c-0.169,0.156-0.383,0.254-0.641,0.283
					c-0.276,0.033-0.57-0.01-0.882-0.131c-0.309-0.121-0.574-0.289-0.792-0.504c-0.223-0.217-0.347-0.436-0.379-0.656
					c-0.034-0.232,0.04-0.434,0.225-0.605c0.084-0.033,0.163-0.057,0.249-0.064c0.236-0.033,0.458,0.043,0.652,0.225
					c0.195,0.178,0.387,0.432,0.573,0.756c0.295-0.477,0.545-1.051,0.758-1.727c0.098-0.301,0.192-0.562,0.281-0.799
					c0.09-0.238,0.196-0.527,0.318-0.877c-0.24,0.355-0.52,0.664-0.843,0.926c-0.324,0.262-0.643,0.41-0.953,0.449
					c-0.148,0.018-0.295,0-0.438-0.049c-0.143-0.047-0.277-0.139-0.405-0.27c-0.127-0.135-0.24-0.314-0.338-0.541
					c-0.04-0.271-0.025-0.635,0.039-1.092s0.225-0.967,0.476-1.521s0.64-1.111,1.168-1.664c0.534-0.557,1.216-1.033,2.057-1.434
					c0.144-0.02,0.333-0.025,0.559-0.025c0.224,0.006,0.363,0.057,0.404,0.154c0.009,0,0.042-0.047,0.101-0.133
					c0.056-0.088,0.101-0.158,0.136-0.215c0.083-0.008,0.167,0.01,0.246,0.064C202.71,116.055,202.765,116.082,202.799,116.088z
					 M201.002,117.479c-0.3,0.156-0.644,0.453-1.026,0.891c-0.386,0.436-0.707,0.9-0.962,1.398
					c-0.258,0.494-0.361,0.904-0.316,1.223c0.02,0.141,0.063,0.246,0.135,0.33c0.179-0.023,0.428-0.197,0.754-0.523
					c0.321-0.326,0.667-0.73,1.025-1.215c0.361-0.488,0.652-0.932,0.867-1.34c0.216-0.406,0.308-0.697,0.281-0.879
					c-0.008-0.057-0.022-0.096-0.042-0.121c-0.038-0.027-0.091-0.041-0.161-0.027c-0.057,0.004-0.118,0.025-0.184,0.053
					c-0.064,0.031-0.142,0.07-0.226,0.127C201.062,117.445,201.014,117.473,201.002,117.479z"/>
			</g>
			<g>
				<path fill="#F2DFC7" d="M207.557,115.498c0.02-0.039,0.062-0.094,0.127-0.174c0.063-0.072,0.103-0.135,0.119-0.174
					c0.239-0.031,0.438-0.047,0.597-0.051c0.116-0.01,0.199-0.01,0.252,0.02c0.056,0.027,0.087,0.045,0.104,0.062l-2.055,6.477
					c-0.034,0.027-0.074,0.045-0.118,0.047c-0.033,0.006-0.081,0.006-0.143-0.006c-0.061-0.008-0.115-0.016-0.156-0.033
					c-0.039-0.018-0.093-0.029-0.155-0.047c-0.043,0.014-0.122,0.049-0.237,0.113c-0.117,0.061-0.196,0.094-0.248,0.104
					c-0.072,0.004-0.113-0.023-0.126-0.098c-0.021-0.139,0.064-0.416,0.253-0.83c-0.101,0.168-0.307,0.371-0.608,0.602
					c-0.306,0.232-0.566,0.389-0.785,0.465c-0.081,0.023-0.154,0.043-0.216,0.051c-0.16,0.02-0.337,0.008-0.527-0.035
					c-0.188-0.043-0.358-0.117-0.505-0.221c-0.146-0.102-0.237-0.219-0.273-0.35c-0.062-0.141-0.104-0.297-0.13-0.467
					c-0.04-0.279-0.011-0.605,0.083-0.975c0.093-0.369,0.29-0.828,0.595-1.383c0.427-0.781,0.965-1.473,1.615-2.061
					c0.653-0.59,1.35-0.93,2.087-1.02C207.25,115.498,207.398,115.492,207.557,115.498z M207.156,116.486
					c-0.494,0.129-0.995,0.463-1.507,1.008c-0.51,0.541-0.917,1.145-1.219,1.803c-0.306,0.656-0.43,1.195-0.371,1.609
					c0.239-0.037,0.461-0.127,0.669-0.273c0.209-0.141,0.399-0.324,0.574-0.545c0.173-0.223,0.32-0.445,0.447-0.668
					c0.121-0.219,0.275-0.514,0.459-0.883C206.745,117.461,207.062,116.775,207.156,116.486z"/>
			</g>
			<g>
				<path fill="#F2DFC7" d="M211.846,120.961c-0.104,0.014-0.193-0.016-0.27-0.084c-0.078-0.068-0.151-0.109-0.227-0.125
					c-0.076-0.023-0.166-0.033-0.27-0.029c-0.103,0.006-0.179-0.004-0.227-0.025c-0.047-0.023-0.076-0.074-0.088-0.146
					c-0.02-0.242,0.021-0.559,0.128-0.939c0.103-0.385,0.277-0.908,0.512-1.58c0.239-0.668,0.401-1.137,0.494-1.404
					c0.088-0.27,0.14-0.512,0.15-0.723c-0.233,0.086-0.46,0.23-0.676,0.432c-0.215,0.195-0.417,0.426-0.612,0.684
					c-0.195,0.256-0.352,0.479-0.471,0.666c-0.116,0.186-0.261,0.418-0.436,0.701c-0.053,0.203-0.175,0.578-0.356,1.121
					c-0.182,0.537-0.433,1.174-0.749,1.9c-0.124,0.014-0.213,0.008-0.27-0.021c-0.06-0.023-0.106-0.07-0.153-0.143
					c-0.045-0.064-0.087-0.115-0.123-0.148c-0.066-0.035-0.154-0.061-0.256-0.07c-0.104-0.016-0.182-0.037-0.235-0.07
					c-0.05-0.025-0.084-0.086-0.095-0.174c0.028-0.088,0.108-0.324,0.241-0.713c0.13-0.387,0.252-0.742,0.36-1.068
					c0.107-0.322,0.222-0.652,0.35-0.99c0.12-0.33,0.22-0.607,0.305-0.822c0.298-0.895,0.481-1.445,0.559-1.66
					c0.076-0.213,0.139-0.365,0.185-0.459c0.025-0.047,0.056-0.072,0.086-0.08c0.057-0.002,0.134,0.025,0.245,0.09
					c0.109,0.068,0.179,0.096,0.211,0.09c0.047-0.006,0.123-0.039,0.227-0.088c0.105-0.053,0.185-0.08,0.239-0.084
					c0.068-0.01,0.121,0.004,0.154,0.037c-0.014,0.148-0.04,0.275-0.08,0.373c-0.039,0.096-0.108,0.256-0.206,0.49
					c0.109-0.088,0.234-0.191,0.373-0.303c0.142-0.117,0.278-0.221,0.415-0.314c0.139-0.098,0.277-0.18,0.421-0.242
					c0.146-0.061,0.289-0.102,0.427-0.117c0.241-0.033,0.483,0.018,0.734,0.143c0.286,0.162,0.457,0.424,0.505,0.783
					c0.078,0.543-0.119,1.389-0.587,2.543c-0.189,0.471-0.328,0.85-0.429,1.148c-0.096,0.293-0.174,0.533-0.232,0.723
					C212.062,120.447,211.969,120.68,211.846,120.961z"/>
			</g>
		</g>
		<g>
			<g>
				<path fill="#F2DFC7" d="M176.901,111.412c-0.051-0.393,0.06-0.814,0.338-1.273c0.279-0.461,0.762-0.914,1.444-1.369
					c0.685-0.453,1.561-0.834,2.638-1.145c0.285-0.076,0.465-0.121,0.538-0.131c0.343-0.041,0.637,0.02,0.872,0.189
					c0.234,0.169,0.446,0.471,0.628,0.904c-0.104,0.367-0.337,0.709-0.687,1.012c-0.352,0.309-0.795,0.512-1.329,0.617
					c-0.033-0.05-0.102-0.117-0.202-0.208c-0.102-0.089-0.156-0.171-0.168-0.24c-0.018-0.122,0.062-0.276,0.24-0.472
					c-0.263,0.1-0.548,0.215-0.85,0.336c-0.305,0.123-0.59,0.262-0.865,0.415c-0.273,0.152-0.502,0.336-0.693,0.55
					c-0.188,0.216-0.274,0.449-0.265,0.707c0.069,0.129,0.292,0.213,0.675,0.262c0.379,0.043,0.826,0.098,1.345,0.16
					c0.519,0.068,0.895,0.168,1.13,0.299c0.647,0.371,1.011,0.83,1.089,1.389c0.064,0.447-0.078,1.078-0.433,1.893
					c-0.188,0.422-0.544,0.867-1.071,1.338c-0.526,0.469-1.126,0.879-1.799,1.227s-1.29,0.555-1.858,0.623
					c-0.432,0.055-0.797,0.02-1.095-0.1c-0.562-0.229-0.883-0.602-0.958-1.127c-0.045-0.318,0.003-0.65,0.144-1.002
					c0.137-0.346,0.351-0.668,0.639-0.957c0.286-0.295,0.605-0.508,0.954-0.645c0.123,0.061,0.205,0.121,0.257,0.184
					c0.05,0.059,0.103,0.162,0.158,0.309c-0.24,0.162-0.438,0.365-0.595,0.619c-0.157,0.244-0.24,0.525-0.253,0.836
					c0.081,0.109,0.243,0.15,0.484,0.117c0.491-0.059,1.139-0.305,1.943-0.746c0.349-0.164,0.653-0.35,0.913-0.553
					c0.259-0.205,0.466-0.455,0.626-0.754c0.159-0.305,0.23-0.641,0.21-1.012c-0.037-0.135-0.253-0.236-0.639-0.305
					c-0.383-0.07-0.858-0.158-1.424-0.277c-0.568-0.115-1.038-0.303-1.41-0.555C177.2,112.275,176.978,111.898,176.901,111.412z"/>
			</g>
		</g>
		<g>
			<g>
				<path fill="#F2DFC7" d="M178.627,119.434c0.285-0.268,0.558-0.484,0.811-0.65c0.254-0.168,0.518-0.312,0.793-0.439
					c0.272-0.121,0.634-0.266,1.073-0.42c0.284-0.107,0.597-0.182,0.937-0.223c0.647-0.08,1.265-0.008,1.851,0.211
					c0.586,0.215,1.082,0.572,1.49,1.068c0.411,0.496,0.666,1.105,0.77,1.826c0.039,0.43-0.057,0.885-0.289,1.375
					c-0.232,0.486-0.553,0.943-0.959,1.377c-0.405,0.436-0.844,0.785-1.316,1.07c-0.473,0.275-0.912,0.439-1.315,0.484
					c-0.735,0.09-1.234-0.189-1.506-0.836c-0.096,0.512-0.233,1.133-0.421,1.852c-0.186,0.721-0.481,1.84-0.886,3.352
					c-0.121,0.016-0.221,0.008-0.305-0.021c-0.086-0.027-0.174-0.072-0.272-0.131c-0.098-0.059-0.163-0.098-0.198-0.113
					c-0.035-0.027-0.102-0.049-0.194-0.064c-0.094-0.018-0.171-0.041-0.233-0.076c-0.058-0.031-0.105-0.086-0.146-0.148L178.57,127
					l1.786-6.912c-0.186,0.072-0.424,0.18-0.715,0.314c-0.293,0.135-0.572,0.234-0.836,0.297c-0.024-0.047-0.044-0.121-0.056-0.217
					c-0.009-0.053-0.012-0.131-0.009-0.229c0.005-0.1,0.003-0.168-0.003-0.209c-0.009-0.064-0.026-0.139-0.059-0.221
					c-0.028-0.086-0.044-0.145-0.051-0.188C178.617,119.553,178.615,119.486,178.627,119.434z M182.077,119.643
					c-0.134,0.512-0.309,1.184-0.527,2.016c-0.214,0.826-0.324,1.242-0.327,1.234c0.129-0.141,0.256-0.232,0.384-0.287
					c0.126-0.053,0.311-0.096,0.547-0.123c-0.053,0.078-0.149,0.17-0.278,0.275c-0.133,0.105-0.225,0.201-0.276,0.293
					c-0.055,0.09-0.068,0.213-0.049,0.365c0.745-0.115,1.388-0.34,1.938-0.67c0.55-0.332,0.962-0.711,1.236-1.139
					c0.275-0.426,0.388-0.822,0.334-1.184c-0.057-0.17-0.22-0.332-0.484-0.482c-0.267-0.15-0.583-0.268-0.954-0.344
					c-0.366-0.082-0.723-0.104-1.067-0.061C182.387,119.557,182.227,119.594,182.077,119.643z"/>
			</g>
		</g>
	</g>
</g>
</svg>
