<svg id="Layer_1" data-name="Layer 1" xmlns="http://www.w3.org/2000/svg" viewBox="0 0 418.17 252.37"><defs><style>.cls-1{fill:#fff;fill-rule:evenodd;}.cls-2{fill:#8f1a1c;}</style></defs><title>logo</title><polygon class="cls-1" points="415.23 252.37 2.89 252.21 2.92 197.81 415.27 197.95 415.23 252.37"/><path class="cls-1" d="M59,282.73a10.09,10.09,0,0,0-2.65.21c.6-6.11-11.8-5.54-10.47-.21,1,3.8,11.7,2.73,13.51,7.37,4.19,10.77-18.14,12.05-17.2,1.46a22.76,22.76,0,0,1,2.67-.24c-.72,6.49,13.46,7.18,12.07.43-.91-4.54-13.81-2.13-13.92-9.42-.11-8.08,16.54-8.57,16,.41" transform="translate(-31.86 -114.76)"/><path class="cls-1" d="M234.2,276.56c4.53-.69,8.33,1,10.25,3.48a7.67,7.67,0,0,1,1.44,2.45c3.33,8.08-2.28,17.54-11.09,16.58-4.73-.48-8.75-4.17-9.18-10-.55-6.75,2.79-11.61,8.59-12.47m-5.11,15.34c1.49,4.19,8.06,7,12.29,2.87,5.12-4.91,2.51-17.65-7-15.78-4.87,1-7.5,6.95-5.34,12.91" transform="translate(-31.86 -114.76)"/><path class="cls-1" d="M260.83,276.56a19.33,19.33,0,0,1-.4,2.25,6,6,0,0,0-3.47.4,9.08,9.08,0,0,0-.4,3.49c1,0,2,0,3.06,0,0,.67,0,1.36,0,2h-2.88c-.47,4.21-.06,9.34-.21,13.93l-2.67,0c.14-4.51-.27-9.55.22-13.73-.5-.38-1.65-.14-2.45-.24,0-.63,0-1.32,0-2,.74,0,1.49,0,2.25,0-.7-4.18,1.94-7.68,6.95-6.14" transform="translate(-31.86 -114.76)"/><path class="cls-1" d="M303,283a8.89,8.89,0,0,0-2.66.2c.73-5.73-11.21-5.94-10.46-.42.54,3.87,10,2.84,12.7,6.14a6.13,6.13,0,0,1,1.22,3.72c0,8-13.25,7.93-16.39,3.27-.79-1.2-.79-2.28-1.23-4.1,1,0,1.58-.38,2.67-.23-.73,6.45,13.49,7.18,12.07.42-1-4.93-13.76-2-13.91-9.45-.19-8.21,16.59-8.45,16,.45" transform="translate(-31.86 -114.76)"/><path class="cls-1" d="M168.65,276.68c0,2.54,0,5.09,0,7.57.9-.26,2-1.59,3.26-1.82,8.95-1.65,6.8,8.41,7,16.19-.89,0-1.77,0-2.66,0-.71-4.58,1.76-12.92-2-14-6.59-1.74-5.68,7.59-5.55,13.93H166c0-7.31,0-14.6,0-21.94.9,0,1.77,0,2.67,0" transform="translate(-31.86 -114.76)"/><path class="cls-1" d="M333.59,276.83q0,11,0,21.92h-2.68q0-10.66,0-21.29c-.12-1.22,1.81-.36,2.67-.62" transform="translate(-31.86 -114.76)"/><path class="cls-1" d="M340.94,276.83h2.67c0,1,0,1.92,0,2.89l-2.67,0c0-.95,0-1.9,0-2.86" transform="translate(-31.86 -114.76)"/><path class="cls-1" d="M361,276.85h2.69c0,7.32,0,14.62,0,21.92-.83,0-1.64,0-2.46,0,0-.57,0-1.11,0-1.65-1.16.69-2,1.86-3.69,2.06-10.11,1.12-10.36-19,.64-16.6,1.23.27,1.73,1.26,2.85,2.06,0-2.6,0-5.21,0-7.8m-2.25,19.87c4.34-1.69,3.39-12.78-2.46-11.89-6.13,1-4.44,14.57,2.46,11.89" transform="translate(-31.86 -114.76)"/><path class="cls-1" d="M407.53,276.88c0,1,0,1.94,0,2.9-.88-.12-2.12.16-2.66-.22-.49-2.26.41-3.16,2.65-2.67" transform="translate(-31.86 -114.76)"/><path class="cls-1" d="M157.36,282.42c.49.47,1.84.07,2.67.21,0,.69,0,1.37,0,2-.88,0-1.78,0-2.66,0,.32,3.78-.69,8.87.61,11.69h2.25c-.16,1,.22,1.38.19,2.22-8.08,2.38-5.25-7.86-5.72-13.71-.29-.56-1.76.09-2-.41s.34-1.4,0-1.46c.1-.69,1.33-.28,2-.39,0-1.3,0-2.57,0-3.89a15,15,0,0,0,2.28-1.44c.91.94.12,3.53.37,5.12" transform="translate(-31.86 -114.76)"/><path class="cls-1" d="M418,282.64c.52.48,1.85.06,2.66.21.39.39.16,1.33.23,2.06H418c.11,3.7-.26,7.88.21,11.26.53.5,1.63.43,2.66.39-.13.94.35,1.29.21,2.26-7.94,2.45-5.47-8.32-5.52-13.73-.38-.37-1.36-.15-2.07-.21,0-.69,0-1.36,0-2h1.88c.11-.52-.07-2.54,0-3.69.53-.74,1.69-.9,2.23-1.64.94.92.19,3.53.41,5.13" transform="translate(-31.86 -114.76)"/><path class="cls-1" d="M96.75,285c1.26-.84,1.75-2,3.07-2.46,8.79-2.91,6.91,8.59,6.95,16H104.1c-.81-4.87,2.54-15.11-3.88-13.91-4.48.8-2.41,9.14-2.89,13.93-.9,0-1.79,0-2.67,0-.55-5.1,2.27-16.09-4.5-13.73-3.69,1.32-2.11,9.09-2.45,13.73H85c.14-5.25-.27-11.07.22-16h2.24c0,.68,0,1.37,0,2,1.42-2.6,8.5-3.48,9.22.43" transform="translate(-31.86 -114.76)"/><path class="cls-1" d="M116.6,297.12c0,2.54,0,5.07,0,7.61-.9-.09-2.12.19-2.67-.22,0-7.11,0-15.27,0-21.7.48-.39,1.65-.15,2.44-.22,0,.62,0,1.23,0,1.83a6.89,6.89,0,0,1,8.58-1c3.59,2.48,3.79,10,1,13.31-1.86,2.15-7.1,3.24-9.41.37m5.95-.59c4.11-1.63,3.79-13.51-2.67-11.88-5.66,1.41-4.22,14.6,2.67,11.88" transform="translate(-31.86 -114.76)"/><path class="cls-1" d="M147.73,298.41c-.55.46-1.95,0-2.87.19a17,17,0,0,0-.39-1.85c-3.34,3.22-11.29,3.09-11.48-2.08-.21-5.72,6.75-4.71,11.26-6.12,1.12-5.5-8-5.07-8.19-1-1,.1-1.41-.35-2.46-.21-.16-5.24,9.41-6.63,12.3-3.47s-.67,10.86,1.84,14.56m-11.48-2.51c2.39,3.23,10-.5,7.79-5.3-.11,0-.23,0-.2.22-2.94.48-10.43,1.26-7.59,5.08" transform="translate(-31.86 -114.76)"/><path class="cls-1" d="M315.33,282.78c7.84-1.45,11.46,6.54,8.39,12.71-2.42,4.86-11.05,4.62-13.31,0-2.64-5.41-.06-11.8,4.92-12.69m-1.22,13.28a5.05,5.05,0,0,0,7-1.2c2.54-4.46,0-10.76-4.71-10.08s-5.33,8.89-2.25,11.28" transform="translate(-31.86 -114.76)"/><path class="cls-1" d="M384.79,298.79H382.1a17.37,17.37,0,0,1-.41-1.84c-3.57,3.52-11.6,2.8-11.48-2.48s6.68-4.43,11.31-5.73c1.1-5.5-8-5-8.21-1-1,.08-1.4-.35-2.44-.2-.23-5.25,9.43-6.64,12.31-3.47s-.5,10.66,1.63,14.75m-11.28-2.66c2.3,3.27,10-.58,7.78-5.3-.13,0-.24,0-.21.16-3,.53-10.36,1.23-7.57,5.14" transform="translate(-31.86 -114.76)"/><path class="cls-1" d="M399.94,283.26c.41.68-.66,1.42-.6,2.45-7-2.5-4.81,7.56-5.13,13.08h-2.66q0-8,0-16h2.26c0,.78,0,1.53,0,2.26,1-1.68,3.74-3.51,6.15-1.81" transform="translate(-31.86 -114.76)"/><path class="cls-1" d="M65.16,282.55h2.69c1.34,4.32,3.25,8.08,4.28,12.72,2-3.88,3.14-8.66,4.93-12.7.83,0,1.65,0,2.45,0-.83,3-2.45,6.72-3.88,10.66-1.85,5-2.66,12.78-9.23,11.67.11-1-.35-1.45-.21-2.46,3.13.95,4.21-1.36,4.92-3.47-1.83-5.63-4.22-10.66-6-16.4" transform="translate(-31.86 -114.76)"/><path class="cls-1" d="M184.84,282.66c.88,0,1.76,0,2.67,0,1.57,4.23,3.24,8.34,4.47,12.92,1.68-4.21,3.18-8.58,4.73-12.9h2.68c-1.95,4.61-4,11.32-6.17,16.8-1.17,3-2.49,6.61-7,5.51-.33-.62-.15-1.76-.41-2.44,2.67,1,4.9-1.35,4.92-3.68,0-1.94-1.8-5-2.85-7.8-1.31-3.47-2.36-6.24-3.07-8.4" transform="translate(-31.86 -114.76)"/><path class="cls-1" d="M343.61,283c0,5.27,0,10.54,0,15.77-.9,0-1.78,0-2.67,0v-16c.89.07,2.11-.2,2.67.2" transform="translate(-31.86 -114.76)"/><path class="cls-1" d="M407.54,282.85c0,5.3,0,10.66,0,16h-2.67c.26-5.12-.45-12.76.43-16,.77,0,1.51,0,2.26,0" transform="translate(-31.86 -114.76)"/><path class="cls-1" d="M425.15,282.86c.88,0,1.78,0,2.66,0,1.61,4.1,3.18,8.29,4.5,12.67,1.78-4,3.14-8.48,4.72-12.7.91,0,1.79,0,2.67,0-1.94,4.56-4,11.32-6.16,16.78-1.16,3-2.47,6.62-7,5.5-.34-.59-.15-1.74-.38-2.43,2.65,1.06,4.89-1.37,4.91-3.69,0-1.92-1.78-4.93-2.87-7.77-1.28-3.38-2.33-6.29-3.06-8.41" transform="translate(-31.86 -114.76)"/><path class="cls-1" d="M92.57,115c2,0,4,0,6,0,31.16.67,51.14,12.57,54.27,41.24-13.22.91-26.77,1.5-40,2.43-1.31-5.26-2.37-9.54-5.7-12.94-7.61-7.6-27.32-7.06-30.13,3.08-3.11,11.11,12.07,12.71,20.08,14.55,6.12,1.44,12.14,2.71,17.6,4.34,21.62,6.31,43.71,16.73,42.39,44.47-1.28,26.1-19.64,40.14-43.08,44.22a121.54,121.54,0,0,1-40.57-.24c-24.52-4.41-38.32-19.35-41.55-45.93a1.91,1.91,0,0,0,0-.22c13.34-1,27.11-1.66,40.56-2.6,1.21,11,6,19.12,15.55,22.13,11.06,3.49,23.27.22,26.87-8.36,2.79-6.74-1.31-12.83-4.92-15.38-5-3.5-13.4-5.36-20.26-7C68,193.66,46,187.37,39.08,167.18c-5.6-16.34,1.77-31.76,11.3-39.72,10.2-8.58,24-11.82,42.19-12.46" transform="translate(-31.86 -114.76)"/><path class="cls-1" d="M385.77,115.22h5.72c31,.76,51.19,12.35,54.05,41.23-13.17.93-26.71,1.52-39.95,2.43a28.8,28.8,0,0,0-2-7.39c-4-9.1-17.39-13.67-27.62-9-3.26,1.48-7.14,5.52-6.15,10.65,1.2,6.49,9.5,8.1,16.37,9.65,28.77,6.46,60.34,12.58,63.87,44.08,0,2.75,0,5.47,0,8.2-2.25,15.56-9.63,26.29-20.53,33.38-11.29,7.34-26.29,9.81-44.45,9.62-17.93-.22-32.24-3.63-42.42-11.53s-15.84-20.2-17.81-36.27c13.3-1,27-1.7,40.38-2.64,1.55,8.88,3.89,15.64,10.44,19.87,10.64,6.95,30.09,3.56,32.77-7.53,1.74-7.24-2.56-12-6.32-14.35-8-5.11-21.73-6.75-32.8-10.08-10.27-3.08-21.06-7.53-28.45-14.36a33.54,33.54,0,0,1-10.63-21.92c-.83-11.06,2.53-19.23,7.19-25.41,10-13.27,26.22-17.73,48.37-18.61" transform="translate(-31.86 -114.76)"/><path class="cls-1" d="M259.56,130c-6.15-4.77-16.41-9-27.88-9.43-11.92-.53-22.75,2.67-30.13,7.33,11.85-9,30.3-15.36,50.63-12.44a71.62,71.62,0,0,1,42.8,22c10.92,11.4,18.11,25.81,19.43,45.3,1.35,20.22-6,36.56-15.42,48.74s-22.74,21.12-39.56,25.18c-19.81,4.76-39.51-.13-52.65-7.43A72.31,72.31,0,0,1,176.3,215c-6.08-14.33-8.3-37.5-1-54.07a58.45,58.45,0,0,0,7.15,45.47A55.09,55.09,0,0,0,215.62,230c26.71,6.51,48.82-7.34,59.23-22.9a50.76,50.76,0,0,0,8.43-20.28c0-.17.21-.22.21-.42-7.14,13-16.57,22.75-33.38,25-25.89,3.37-46-15.1-47.74-39.17a41.63,41.63,0,0,1,5.35-23.35c6.73-11.73,18.73-21.64,36.69-21.69A43.34,43.34,0,0,1,259.56,130" transform="translate(-31.86 -114.76)"/><path class="cls-2" d="M105.74,328.3a6.56,6.56,0,0,1,2.43,1.8,8.14,8.14,0,0,1,1.3,2.2A7.22,7.22,0,0,1,110,335a7.72,7.72,0,0,1-.94,3.63,5.29,5.29,0,0,1-3.08,2.54,4.78,4.78,0,0,1,2.55,2,8.66,8.66,0,0,1,.74,4.06V349a13.37,13.37,0,0,0,.15,2.42,2.16,2.16,0,0,0,1,1.48v.64h-6c-.16-.58-.29-1-.36-1.39a12.6,12.6,0,0,1-.22-2.24l0-2.41c0-1.65-.3-2.76-.86-3.3a4.36,4.36,0,0,0-3.09-.82h-5.3v10.16H89.24V327.64h12.41a11.5,11.5,0,0,1,4.09.66m-11.21,3.82v7h5.83a6.23,6.23,0,0,0,2.61-.42,2.93,2.93,0,0,0,1.54-2.92A3.3,3.3,0,0,0,103,332.6a5.49,5.49,0,0,0-2.51-.47Z" transform="translate(-31.86 -114.76)"/><path class="cls-2" d="M153.14,351.28c-2,2-4.79,3-8.5,3s-6.53-1-8.49-3q-3.94-3.72-3.95-10.7t3.95-10.71q2.94-3,8.49-3t8.5,3q3.94,3.57,3.93,10.71t-3.93,10.7m-3.39-3.95c1.27-1.59,1.89-3.84,1.89-6.75s-.63-5.16-1.89-6.75a6.19,6.19,0,0,0-5.12-2.39,6.28,6.28,0,0,0-5.13,2.38,12.85,12.85,0,0,0,0,13.52,6.24,6.24,0,0,0,5.13,2.39,6.18,6.18,0,0,0,5.12-2.39" transform="translate(-31.86 -114.76)"/><polygon class="cls-2" points="147.34 238.82 147.34 212.88 152.73 212.88 152.73 222.77 162.81 222.77 162.81 212.88 168.21 212.88 168.21 238.82 162.81 238.82 162.81 227.24 152.73 227.24 152.73 238.82 147.34 238.82"/><rect class="cls-2" x="190.99" y="212.88" width="5.39" height="25.94"/><polygon class="cls-2" points="219.4 212.88 225.08 212.88 235.39 230.98 235.39 212.88 240.44 212.88 240.44 238.82 235 238.82 224.44 220.42 224.44 238.82 219.4 238.82 219.4 212.88"/><path class="cls-2" d="M312.84,335.74a5.05,5.05,0,0,0-3-3.71,7.31,7.31,0,0,0-3-.59,6.45,6.45,0,0,0-5.14,2.38q-2,2.34-2,7.09c0,3.18.73,5.45,2.18,6.77a7.17,7.17,0,0,0,5,2,6.4,6.4,0,0,0,4.47-1.57,6.75,6.75,0,0,0,2.15-4.08h-6v-4.36h10.81v13.93h-3.59l-.54-3.23a12,12,0,0,1-2.82,2.59,9.85,9.85,0,0,1-5.27,1.33,11,11,0,0,1-8.45-3.58c-2.29-2.39-3.42-5.66-3.42-9.82s1.15-7.56,3.46-10.1a11.83,11.83,0,0,1,9.17-3.8,12,12,0,0,1,7.95,2.52,9.41,9.41,0,0,1,3.45,6.26Z" transform="translate(-31.86 -114.76)"/><polygon class="cls-2" points="324.42 212.88 330.56 212.88 321.87 229.1 321.87 238.82 316.46 238.82 316.46 229.1 307.49 212.88 313.86 212.88 319.25 224.18 324.42 212.88"/><path class="cls-2" d="M387.66,327.64h6.13L403,353.58H397.1l-1.72-5.33h-9.56l-1.76,5.33H378.4Zm-.37,16.14h6.65l-3.28-10.21Z" transform="translate(-31.86 -114.76)"/></svg>