<svg id="Layer_1" data-name="Layer 1" xmlns="http://www.w3.org/2000/svg" viewBox="0 0 299.7 57.61"><defs><style>.cls-1{fill:#cbcf2b;}.cls-2{fill:#1b75bc;}.cls-3{fill:#128141;}.cls-4{fill:#93c01f;}.cls-5{fill:#f29100;}.cls-6{fill:#231f20;}.cls-7{fill:#fff;}.cls-8{fill:#1d1d1b;}.cls-9{fill:#545454;opacity:0.37;}</style></defs><title>logo</title><path class="cls-1" d="M2.3,42.4V16.3S3.7,5.9,13,5.9H41.5s9.9,1.6,9.9,10.3V46.4S48.7,55,41.6,55H10.5S3.3,53.2,2.3,43.9Z" transform="translate(-2.3 -2.39)"/><path class="cls-2" d="M9.3,25.3S18.1,7.7,37.6,12.7c0,0,8.2,1.5,12.7-.6,0,0-9.5,18.2-30.1,17.7,0,0,6.5-1.8,17.4-12.5C37.7,17.4,21.4,11.5,9.3,25.3Z" transform="translate(-2.3 -2.39)"/><path class="cls-3" d="M44.5,35.2S35.7,52.8,16.2,47.8c0,0-8.2-1.5-12.7.6,0,0,9.5-18.2,30.1-17.7,0,0-6.5,1.8-17.4,12.5C16.1,43.1,32.4,49.1,44.5,35.2Z" transform="translate(-2.3 -2.39)"/><path class="cls-2" d="M74.5,26.7a24.88,24.88,0,0,1-7.2,1.2c-3.9,0-6.8-1-8.8-2.9a10.7,10.7,0,0,1-3.1-7.9c0-7.2,5.3-11.3,12.4-11.3a13.5,13.5,0,0,1,6,1.1l-1,3.9a12.39,12.39,0,0,0-5-.9c-4.1,0-7.2,2.3-7.2,7,0,4.5,2.8,7.1,6.8,7.1a6.6,6.6,0,0,0,2.4-.3V19.2H66.5V15.4h8.1V26.7Z" transform="translate(-2.3 -2.39)"/><path class="cls-2" d="M78.3,4.9h4.9V27.7H78.3Z" transform="translate(-2.3 -2.39)"/><path class="cls-2" d="M102.6,19.6c0,5.7-4.1,8.4-8.3,8.4-4.6,0-8.1-3-8.1-8.1s3.3-8.3,8.4-8.3A7.61,7.61,0,0,1,102.6,19.6Zm-11.4.2c0,2.7,1.1,4.7,3.2,4.7,1.9,0,3.1-1.9,3.1-4.7,0-2.3-.9-4.7-3.1-4.7S91.2,17.5,91.2,19.8Z" transform="translate(-2.3 -2.39)"/><path class="cls-2" d="M105.5,27.7c.1-1,.1-2.9.1-4.7V4.9h4.9v9h.1a5.68,5.68,0,0,1,4.8-2.2c3.8,0,6.5,3.1,6.5,7.9,0,5.6-3.6,8.5-7.2,8.5a5.28,5.28,0,0,1-4.7-2.5h-.1l-.2,2.2h-4.2Zm5-6.7a2.77,2.77,0,0,0,.1.9,2.92,2.92,0,0,0,2.9,2.3c2.1,0,3.4-1.6,3.4-4.4,0-2.4-1.1-4.4-3.4-4.4a3.16,3.16,0,0,0-2.9,2.4,2.77,2.77,0,0,0-.1.9Z" transform="translate(-2.3 -2.39)"/><path class="cls-2" d="M133.7,27.7l-.3-1.6h-.1a5.42,5.42,0,0,1-4.5,1.9,4.81,4.81,0,0,1-5.1-4.8c0-4.1,3.7-6,9.2-6V17c0-.8-.4-2-2.9-2a8.08,8.08,0,0,0-4.3,1.2l-.9-3.1a12.92,12.92,0,0,1,6.1-1.4c5.2,0,6.9,3.1,6.9,6.8V24a36.26,36.26,0,0,0,.2,3.8h-4.3Zm-.6-7.4c-2.6,0-4.6.6-4.6,2.5a1.73,1.73,0,0,0,1.9,1.9,2.61,2.61,0,0,0,2.5-1.8,2.2,2.2,0,0,0,.1-.8V20.3Z" transform="translate(-2.3 -2.39)"/><path class="cls-2" d="M141.7,4.9h4.9V27.7h-4.9Z" transform="translate(-2.3 -2.39)"/><path class="cls-3" d="M55.4,52,67.1,35.1V35H56.5V30.4H74.4v3.2L62.9,50.2v.1H74.6v4.6H55.4Z" transform="translate(-2.3 -2.39)"/><path class="cls-3" d="M88.3,54.9,88,53.1h-.1a6.56,6.56,0,0,1-5.1,2.2A5.5,5.5,0,0,1,77,49.8c0-4.6,4.2-6.9,10.5-6.8v-.3c0-.9-.5-2.3-3.3-2.3a9.14,9.14,0,0,0-4.9,1.4l-1-3.6a14.45,14.45,0,0,1,6.9-1.6c6,0,7.9,3.5,7.9,7.7v6.2a25.92,25.92,0,0,0,.3,4.4H88.3Zm-.7-8.4c-2.9,0-5.2.7-5.2,2.8a2,2,0,0,0,2.2,2.1,2.78,2.78,0,0,0,3-3Z" transform="translate(-2.3 -2.39)"/><path class="cls-3" d="M103,44.6h0c.5-.7.9-1.5,1.4-2.2L108,37h6.7l-6.4,7.2,7.3,10.6h-6.8l-4.3-7.4-1.4,1.8v5.6H97.5V29h5.6V44.6Z" transform="translate(-2.3 -2.39)"/><path class="cls-3" d="M127.6,54.9l-.3-1.8h-.1a6.56,6.56,0,0,1-5.1,2.2,5.5,5.5,0,0,1-5.8-5.5c0-4.6,4.2-6.9,10.5-6.8v-.3c0-.9-.5-2.3-3.3-2.3a9.14,9.14,0,0,0-4.9,1.4l-1-3.6a14.45,14.45,0,0,1,6.9-1.6c6,0,7.9,3.5,7.9,7.7v6.2a25.92,25.92,0,0,0,.3,4.4h-5.1Zm-.7-8.4c-2.9,0-5.2.7-5.2,2.8a2,2,0,0,0,2.2,2.1,2.78,2.78,0,0,0,3-3Z" transform="translate(-2.3 -2.39)"/><path class="cls-3" d="M142.6,31.9V37h4v4.1h-4v6.5c0,2.2.5,3.1,2.2,3.1.7,0,1.2-.1,1.6-.1v4.2a10.63,10.63,0,0,1-3.6.5,5.93,5.93,0,0,1-4.2-1.5c-1-1.1-1.5-2.8-1.5-5.3V41.2h-2.4V37.1h2.4V33.2Z" transform="translate(-2.3 -2.39)"/><path class="cls-4" d="M176,42s9.78-28.7,40.78-31.15c5.21-.41,11.19,2.8,12.27,5.52,0,0,2.45-14.61-12.94-13.93s-35.22,14.69-39.7,29.36a18.14,18.14,0,0,0-.52,9.87Z" transform="translate(-2.3 -2.39)"/><path class="cls-5" d="M184.51,29s.94,8.47,8.2,8.23,15.67-6.15,17.84-8.2c3.71-3.5,9.15-9.89,6.52-18.07h0s-5,15.18-20.13,20.15c0,0-6.52,2.13-9.91-.3C183.81,28.48,184.51,29,184.51,29Z" transform="translate(-2.3 -2.39)"/><path class="cls-6" d="M245.34,27.63H234l-2.77,4.32h-5.28L240.56,9.46h7.49l3,22.49h-5.18ZM245,24.48l-1.5-11.71L236,24.48Z" transform="translate(-2.3 -2.39)"/><path class="cls-6" d="M271.71,23.92h5l-.2.77q-1.23,4.7-3.6,6.07t-9.23,1.38q-7.79,0-9-2.18t1.23-11.63q1.46-5.57,4.35-7.31t10.62-1.76q5.63,0,7.15,1.45t.39,5.71l-.11.51h-5l.15-.58c.38-1.47.29-2.41-.25-2.81s-2-.63-4.27-.64c-3.1,0-5,.33-5.84,1s-1.6,2.57-2.44,5.77c-1.12,4.3-1.51,6.86-1.16,7.64s2.06,1.19,5.13,1.19a12.5,12.5,0,0,0,5-.66,4.2,4.2,0,0,0,1.87-2.9Z" transform="translate(-2.3 -2.39)"/><polygon class="cls-6" points="290.83 10.89 285.96 29.56 280.96 29.56 285.84 10.89 278.24 10.89 279.23 7.07 299.7 7.07 298.7 10.89 290.83 10.89"/><polygon class="cls-6" points="219.45 41.07 222.1 33.13 294.1 33.13 292.03 41.07 219.45 41.07"/><path class="cls-7" d="M228.31,40.41h-1.6l-.42.68h-.75l2.23-3.53h1.06l.27,3.53h-.74Zm0-.49-.14-1.84L227,39.92Z" transform="translate(-2.3 -2.39)"/><polygon class="cls-7" points="229.4 35.17 228.99 36.61 229.32 36.61 230.96 35.17 231.84 35.17 229.87 36.89 231.01 38.7 230.11 38.7 229.17 37.18 228.84 37.18 228.41 38.7 227.71 38.7 228.7 35.17 229.4 35.17"/><path class="cls-7" d="M237.65,38.59H237a.34.34,0,0,1,0-.07c0-.2,0-.32,0-.37a1,1,0,0,0-.51-.08,1.73,1.73,0,0,0-.69.1.53.53,0,0,0-.25.36c-.06.22-.06.36,0,.4a2.62,2.62,0,0,0,.8.1,1.88,1.88,0,0,1,1,.23c.14.12.14.37,0,.75a1.49,1.49,0,0,1-.54.91,2.88,2.88,0,0,1-1.32.21,2.11,2.11,0,0,1-1.12-.19c-.15-.14-.16-.41-.05-.82l0-.13H235l0,.08c-.07.24-.07.4,0,.45a1.67,1.67,0,0,0,.72.08,1.35,1.35,0,0,0,.63-.1.75.75,0,0,0,.26-.44c0-.17,0-.28,0-.34a.61.61,0,0,0-.4-.1l-.39,0a1.92,1.92,0,0,1-1.06-.24c-.13-.12-.14-.38,0-.79a1.25,1.25,0,0,1,.53-.81,2.51,2.51,0,0,1,1.24-.21,2,2,0,0,1,1.08.19c.16.13.19.38.09.74Z" transform="translate(-2.3 -2.39)"/><polygon class="cls-7" points="237.51 35.17 236.53 38.7 235.81 38.7 236.81 35.17 237.51 35.17"/><path class="cls-7" d="M244.7,39.83h.71l0,.12a1.6,1.6,0,0,1-.55,1,2.71,2.71,0,0,1-1.31.21c-.74,0-1.16-.11-1.26-.34a3.73,3.73,0,0,1,.26-1.82,2,2,0,0,1,.66-1.15,3,3,0,0,1,1.51-.28c.54,0,.87.08,1,.23s.14.44,0,.89l0,.08H245l0-.09c.06-.24.06-.38,0-.45a1.08,1.08,0,0,0-.6-.1,1.45,1.45,0,0,0-.83.15,2.22,2.22,0,0,0-.39.9,3.15,3.15,0,0,0-.21,1.2c0,.12.28.18.72.18a1.65,1.65,0,0,0,.71-.1.71.71,0,0,0,.29-.46Z" transform="translate(-2.3 -2.39)"/><polygon class="cls-7" points="245.25 35.74 245 36.65 246.75 36.65 246.61 37.14 244.86 37.14 244.58 38.13 246.44 38.13 246.29 38.7 243.71 38.7 244.71 35.17 247.25 35.17 247.1 35.74 245.25 35.74"/><path class="cls-7" d="M249.69,41.09l1-3.53h1.69c.51,0,.82.09.95.26s.12.48,0,1a1.78,1.78,0,0,1-.52.95,1.9,1.9,0,0,1-1.08.23h-1l-.32,1.14Zm1.18-1.7h.81a1.21,1.21,0,0,0,.63-.11c.12-.06.2-.23.27-.49s.1-.48,0-.56-.22-.11-.54-.11h-.86Z" transform="translate(-2.3 -2.39)"/><path class="cls-7" d="M256.14,40.41h-1.61l-.42.68h-.75l2.22-3.53h1.06l.27,3.53h-.74Zm0-.49L256,38.09l-1.15,1.84Z" transform="translate(-2.3 -2.39)"/><polygon class="cls-7" points="257.83 35.77 257.01 38.7 256.3 38.7 257.13 35.77 256.05 35.77 256.22 35.17 259.11 35.17 258.94 35.77 257.83 35.77"/><polygon class="cls-7" points="263.36 35.77 262.54 38.7 261.83 38.7 262.65 35.77 261.57 35.77 261.74 35.17 264.63 35.17 264.47 35.77 263.36 35.77"/><path class="cls-7" d="M269.33,40.41h-1.61l-.42.68h-.74l2.22-3.53h1.06l.27,3.53h-.72Zm0-.49-.13-1.84L268,39.92Z" transform="translate(-2.3 -2.39)"/><path class="cls-7" d="M275.46,37.56l-1,3.53h-1.19l-.53-1.94c0-.1-.06-.26-.11-.5l0-.26,0-.25h0l-.06.23-.05.22-.12.47-.58,2H271l1-3.53h1.2l.47,1.79c0,.16.08.34.14.58l.06.29.06.29h0l.05-.23,0-.23.13-.46.57-2Z" transform="translate(-2.3 -2.39)"/><path class="cls-7" d="M277.71,39.21h1.63l-.19.7a1.62,1.62,0,0,1-.57,1,3,3,0,0,1-1.43.22c-.64,0-1-.1-1.2-.3s-.14-.6,0-1.2a6,6,0,0,1,.53-1.46,1.3,1.3,0,0,1,.62-.5,3.37,3.37,0,0,1,1.1-.13,2.26,2.26,0,0,1,1.23.2c.15.14.17.43,0,.89h-.71c.05-.23,0-.38,0-.43a1.45,1.45,0,0,0-.68-.09,1.53,1.53,0,0,0-.82.14,1.3,1.3,0,0,0-.35.68l-.1.35-.12.46c-.09.34-.1.57,0,.66s.33.14.72.14a1.56,1.56,0,0,0,.77-.12,1,1,0,0,0,.32-.58l0-.14h-.93Z" transform="translate(-2.3 -2.39)"/><path class="cls-7" d="M281.91,39.21h1.64l-.19.7a1.57,1.57,0,0,1-.58,1,3,3,0,0,1-1.42.22q-1,0-1.2-.3c-.15-.19-.15-.6,0-1.2a6.13,6.13,0,0,1,.54-1.46,1.29,1.29,0,0,1,.61-.5,3.46,3.46,0,0,1,1.11-.13,2.24,2.24,0,0,1,1.23.2c.15.14.17.43,0,.89H283c.05-.23,0-.38,0-.43a1.43,1.43,0,0,0-.68-.09,1.55,1.55,0,0,0-.82.14,1.25,1.25,0,0,0-.36.68l-.1.35-.13.46c-.09.34-.11.57,0,.66s.32.14.72.14a1.58,1.58,0,0,0,.77-.12,1,1,0,0,0,.32-.58l0-.14h-.93Z" transform="translate(-2.3 -2.39)"/><path class="cls-7" d="M286.55,40.41H285l-.43.68h-.74L286,37.56h1.06l.27,3.53h-.73Zm0-.49-.13-1.84-1.15,1.84Z" transform="translate(-2.3 -2.39)"/><path class="cls-7" d="M288.24,41.09l1-3.53h1.69c.5,0,.82.09.94.26s.13.48,0,1a1.76,1.76,0,0,1-.51.95,1.9,1.9,0,0,1-1.07.23h-1L289,41.09Zm1.19-1.7h.8a1.26,1.26,0,0,0,.65-.11.84.84,0,0,0,.26-.49c.09-.3.1-.48.06-.56s-.23-.11-.54-.11h-.87Z" transform="translate(-2.3 -2.39)"/><path class="cls-8" d="M180.08,56.55v.69a3.63,3.63,0,0,1-1.68.37,2.64,2.64,0,0,1-1.31-.29,2.28,2.28,0,0,1-.86-.81,2.16,2.16,0,0,1,.4-2.72,2.53,2.53,0,0,1,1.77-.65,4.29,4.29,0,0,1,1.61.36v.67a3.32,3.32,0,0,0-1.58-.44,1.88,1.88,0,0,0-1.31.48,1.51,1.51,0,0,0-.52,1.18,1.54,1.54,0,0,0,.51,1.18,1.93,1.93,0,0,0,1.32.45A3.12,3.12,0,0,0,180.08,56.55Z" transform="translate(-2.3 -2.39)"/><path class="cls-8" d="M186.15,53.17h.46l2.07,4.39H188l-.62-1.29h-2l-.57,1.29h-.69Zm1,2.54-.74-1.58-.69,1.58Z" transform="translate(-2.3 -2.39)"/><path class="cls-8" d="M192.83,57.57V53.2H194a1.82,1.82,0,0,1,1.11.32,1.11,1.11,0,0,1,.41.9,1.09,1.09,0,0,1-.21.65,1.23,1.23,0,0,1-.58.41,1.68,1.68,0,0,1,.43.38,7.13,7.13,0,0,1,.6.82,3.83,3.83,0,0,0,.39.56l.23.32h-.78l-.2-.29,0,0-.13-.17-.21-.32-.21-.34a2.91,2.91,0,0,0-.38-.43.89.89,0,0,0-.76-.3h-.16v1.9Zm.86-3.83h-.19v1.38h.25a1.83,1.83,0,0,0,.68-.08.59.59,0,0,0,.29-.24.63.63,0,0,0,.11-.37.6.6,0,0,0-.12-.38.53.53,0,0,0-.32-.24A2.48,2.48,0,0,0,193.68,53.73Z" transform="translate(-2.3 -2.39)"/><polygon class="cls-8" points="198.21 50.81 200.82 50.81 200.82 51.37 198.87 51.37 198.87 52.7 200.76 52.7 200.76 53.26 198.87 53.26 198.87 54.62 200.89 54.62 200.89 55.17 198.21 55.17 198.21 50.81"/><polygon class="cls-8" points="210.72 50.81 213.18 50.81 213.18 51.37 211.37 51.37 211.37 52.59 213.18 52.59 213.18 53.15 211.37 53.15 211.37 55.18 210.72 55.18 210.72 50.81"/><path class="cls-8" d="M222.06,53.14a2.59,2.59,0,0,1,1.78.64,2.11,2.11,0,0,1,.71,1.61,2.08,2.08,0,0,1-.72,1.6,2.62,2.62,0,0,1-1.81.63,2.47,2.47,0,0,1-1.75-.63,2.07,2.07,0,0,1-.69-1.58,2.13,2.13,0,0,1,.7-1.62A2.51,2.51,0,0,1,222.06,53.14Zm0,.6a1.82,1.82,0,0,0-1.29.47,1.54,1.54,0,0,0-.51,1.2,1.52,1.52,0,0,0,.51,1.18,1.86,1.86,0,0,0,1.28.46,1.79,1.79,0,0,0,1.28-.48,1.56,1.56,0,0,0,.53-1.19,1.52,1.52,0,0,0-.53-1.16A1.77,1.77,0,0,0,222.08,53.73Z" transform="translate(-2.3 -2.39)"/><path class="cls-8" d="M229,57.57V53.2h1.15a1.8,1.8,0,0,1,1.11.32,1.19,1.19,0,0,1,.21,1.55,1.21,1.21,0,0,1-.58.41,1.76,1.76,0,0,1,.43.38,7.51,7.51,0,0,1,.59.82c.17.25.3.44.39.56l.24.32h-.79l-.19-.29,0,0-.13-.17-.2-.32L231,56.4a2.72,2.72,0,0,0-.37-.43,1.09,1.09,0,0,0-.31-.23,1,1,0,0,0-.45-.08h-.17v1.9Zm.86-3.83h-.2v1.38h.24a1.85,1.85,0,0,0,.7-.08.55.55,0,0,0,.29-.24.71.71,0,0,0,.1-.37.64.64,0,0,0-.12-.38.59.59,0,0,0-.33-.24A2.38,2.38,0,0,0,229.86,53.73Z" transform="translate(-2.3 -2.39)"/><polygon class="cls-8" points="243.13 50.81 243.8 50.81 243.8 55.18 243.13 55.18 243.13 53.28 240.55 53.28 240.55 55.18 239.89 55.18 239.89 50.81 240.55 50.81 240.55 52.7 243.13 52.7 243.13 50.81"/><path class="cls-8" d="M253.94,53.2h.65v2.48a3.12,3.12,0,0,1-.07.76,2,2,0,0,1-.19.43,1.81,1.81,0,0,1-.28.3,2.58,2.58,0,0,1-2.88,0,1.48,1.48,0,0,1-.28-.31,1.7,1.7,0,0,1-.18-.42,3,3,0,0,1-.07-.77V53.2h.66v2.48a1.69,1.69,0,0,0,.15.86,1.14,1.14,0,0,0,.45.39,1.72,1.72,0,0,0,.72.14,1.46,1.46,0,0,0,1-.3,1,1,0,0,0,.28-.36,2.07,2.07,0,0,0,.09-.74Z" transform="translate(-2.3 -2.39)"/><polygon class="cls-8" points="260.5 50.81 261.12 50.81 261.12 55.18 260.46 55.18 260.46 51.78 259.03 53.47 258.92 53.47 257.49 51.78 257.49 55.18 256.82 55.18 256.82 50.81 257.45 50.81 258.98 52.61 260.5 50.81"/><path class="cls-8" d="M269.51,53.17H270L272,57.57h-.66l-.63-1.29h-2l-.59,1.29h-.67Zm1,2.54-.75-1.58L269,55.72Z" transform="translate(-2.3 -2.39)"/><polygon class="cls-8" points="277.53 50.81 278.14 50.81 278.14 55.18 277.58 55.18 274.5 51.82 274.5 55.18 273.88 55.18 273.88 50.81 274.42 50.81 277.53 54.2 277.53 50.81"/><rect class="cls-8" x="282.76" y="50.82" width="0.66" height="4.36"/><polygon class="cls-8" points="287.68 50.81 291.53 50.81 291.53 51.36 289.92 51.36 289.92 55.18 289.26 55.18 289.26 51.36 287.68 51.36 287.68 50.81"/><polygon class="cls-8" points="298.54 50.81 299.35 50.81 297.64 52.87 297.64 55.18 296.96 55.18 296.96 52.87 295.26 50.81 296.06 50.81 297.3 52.32 298.54 50.81"/><rect class="cls-9" x="160.37" width="0.67" height="57.61"/></svg>