<?xml version="1.0" encoding="iso-8859-1"?>
<!-- Generator: Adobe Illustrator 18.1.1, SVG Export Plug-In . SVG Version: 6.00 Build 0)  -->
<svg xmlns="http://www.w3.org/2000/svg" xmlns:xlink="http://www.w3.org/1999/xlink" version="1.1" id="Capa_1" x="0px" y="0px" viewBox="0 0 19.826 19.826" style="enable-background:new 0 0 19.826 19.826;" xml:space="preserve" width="512px" height="512px">
<g>
	<g>
		<path d="M18.694,0H1.132C0.507,0,0,0.507,0,1.132v17.561c0,0.625,0.508,1.133,1.132,1.133h17.562    c0.623,0,1.132-0.508,1.132-1.133V1.132C19.826,0.507,19.317,0,18.694,0z M18.609,18.609H1.217v-4.022H18.61L18.609,18.609    L18.609,18.609z M18.609,13.928H1.217V6.082H18.61L18.609,13.928L18.609,13.928z M18.609,5.094H1.217V1.216H18.61L18.609,5.094    L18.609,5.094z" fill="#FFFFFF"/>
		<rect x="2.433" y="7.71" width="10.055" height="1.076" fill="#FFFFFF"/>
		<rect x="14.8" y="7.671" width="2.231" height="1.076" fill="#FFFFFF"/>
		<rect x="14.8" y="10.386" width="2.231" height="1.078" fill="#FFFFFF"/>
		<rect x="2.433" y="10.425" width="10.055" height="1.077" fill="#FFFFFF"/>
		<rect x="13.482" y="15.499" width="4.206" height="1.419" fill="#FFFFFF"/>
	</g>
</g>
<g>
</g>
<g>
</g>
<g>
</g>
<g>
</g>
<g>
</g>
<g>
</g>
<g>
</g>
<g>
</g>
<g>
</g>
<g>
</g>
<g>
</g>
<g>
</g>
<g>
</g>
<g>
</g>
<g>
</g>
</svg>
