<svg id="Layer_1" data-name="Layer 1" xmlns="http://www.w3.org/2000/svg" viewBox="0 0 431 198.74"><defs><style>.cls-1{fill:#fff;}</style></defs><title>logo2</title><path class="cls-1" d="M30.68,143S64,39.79,169.65,31c17.69-1.45,38.19,10.11,41.77,19.89,0,0,8.43-52.6-44-50.15S47.39,53.55,32.14,106.35a68.67,68.67,0,0,0-1.76,35.5Z" transform="translate(-28.84 -0.63)"/><path class="cls-1" d="M59.61,96.39S62.75,126.87,87.52,126c25.22-.84,53.35-22.13,60.79-29.51,12.64-12.64,31.15-35.59,22.22-65,0,0-17.06,54.58-68.58,72.45,0,0-22.28,7.69-33.74-1-11-8.36-8.6-6.48-8.6-6.48" transform="translate(-28.84 -0.63)"/><path class="cls-1" d="M266.85,91.47H228.18L218.71,107h-18l49.82-80.89H276.1L286.36,107H268.74Zm-1.19-11.39-5-42.12L235,80.08Z" transform="translate(-28.84 -0.63)"/><path class="cls-1" d="M356.7,78.14h17l-.63,2.74c-2.81,11.25-6.86,18.54-12.29,21.88s-15.83,5-31.43,5c-17.68,0-27.93-2.64-30.72-7.84S297.31,80.69,302.91,58c3.25-13.29,8.3-22.09,14.77-26.31s18.59-6.34,36.23-6.34c12.73,0,20.93,1.74,24.3,5.19s3.88,10.31,1.35,20.63L379.19,53H362.08l.53-2.06q2-8-.86-10.13c-1.81-1.49-6.68-2.28-14.51-2.28-10.59,0-17.22,1.14-19.95,3.53s-5.42,9.22-8.28,20.78Q313.26,86,315,90.27c1.3,2.82,7.06,4.3,17.55,4.3,8.48,0,14.1-.79,17-2.44s5-5,6.36-10.37Z" transform="translate(-28.84 -0.63)"/><polygon class="cls-1" points="400.83 39.22 384.23 106.36 367.25 106.36 383.8 39.22 357.94 39.22 361.32 25.47 431 25.47 427.63 39.22 400.83 39.22"/><polygon class="cls-1" points="157.62 147.81 166.63 119.22 411.98 119.22 404.87 147.81 157.62 147.81"/><path class="cls-1" d="M208.8,137.42h-5.44l-1.44,2.46h-2.57L207,127.16h3.55l1,12.72H209Zm0-1.76-.45-6.55-3.89,6.55Z" transform="translate(-28.84 -0.63)"/><polygon class="cls-1" points="191.58 126.53 190.16 131.68 191.31 131.68 196.85 126.53 199.85 126.53 193.14 132.72 197.04 139.25 193.97 139.25 190.75 133.76 189.63 133.76 188.17 139.25 185.73 139.25 189.09 126.53 191.58 126.53"/><path class="cls-1" d="M240.65,130.86h-2.38c.06-.11.06-.13.12-.26a1.63,1.63,0,0,0-.15-1.34,4.15,4.15,0,0,0-1.78-.24,5.34,5.34,0,0,0-2.31.31,2.16,2.16,0,0,0-.91,1.31c-.21.81-.18,1.29.06,1.49a13.06,13.06,0,0,0,2.73.39c1.82.07,3,.32,3.46.72s.47,1.39.11,2.76a5.52,5.52,0,0,1-1.82,3.23c-.79.51-2.36.73-4.54.73-2,0-3.24-.22-3.74-.73s-.63-1.47-.22-2.89l.12-.48h2.28v.21c-.22.94-.22,1.47,0,1.69a5.94,5.94,0,0,0,2.46.3,4.4,4.4,0,0,0,2.19-.35,2.8,2.8,0,0,0,.85-1.64c.21-.55.21-1,0-1.17a2.41,2.41,0,0,0-1.4-.38l-1.29-.12c-2-.08-3.2-.39-3.64-.83s-.45-1.35-.11-2.81a4.51,4.51,0,0,1,1.8-2.92,8.3,8.3,0,0,1,4.24-.78,6.81,6.81,0,0,1,3.71.69c.56.44.62,1.34.3,2.64Z" transform="translate(-28.84 -0.63)"/><polygon class="cls-1" points="219.17 126.53 215.84 139.25 213.38 139.25 216.8 126.53 219.17 126.53"/><path class="cls-1" d="M264.68,135.34h2.43l-.11.45c-.49,1.76-1.09,2.93-1.87,3.4s-2.28.79-4.52.79c-2.46,0-3.93-.38-4.26-1.24s-.1-3,.84-6.56c.58-2.08,1.31-3.43,2.28-4.1s2.67-1,5.14-1c1.85,0,3,.32,3.44.8s.5,1.66.07,3.26l-.07.26h-2.47l.07-.29c.26-.84.26-1.41,0-1.59s-.9-.38-2.09-.38a4.44,4.44,0,0,0-2.74.55c-.48.38-.87,1.45-1.41,3.29-.62,2.4-.84,3.83-.69,4.29s1,.69,2.45.69a5.23,5.23,0,0,0,2.34-.41c.5-.18.83-.79,1-1.62Z" transform="translate(-28.84 -0.63)"/><polygon class="cls-1" points="245.54 128.62 244.67 131.89 250.6 131.89 250.13 133.66 244.26 133.66 243.25 137.19 249.63 137.19 249.03 139.25 240.31 139.25 243.66 126.53 252.33 126.53 251.82 128.62 245.54 128.62"/><path class="cls-1" d="M281.64,139.88l3.41-12.72h5.73c1.71,0,2.82.36,3.22.93s.5,1.77,0,3.46a5.86,5.86,0,0,1-1.76,3.38,6.42,6.42,0,0,1-3.7.82h-3.37l-1.08,4.13Zm4-6.13h2.77a3.81,3.81,0,0,0,2.12-.36,2.59,2.59,0,0,0,.93-1.78c.32-1.1.4-1.73.23-2s-.81-.37-1.82-.37h-3Z" transform="translate(-28.84 -0.63)"/><path class="cls-1" d="M303.66,137.42h-5.49l-1.44,2.46h-2.54l7.59-12.72h3.59l.91,12.72h-2.44Zm-.15-1.76-.41-6.55-3.88,6.55Z" transform="translate(-28.84 -0.63)"/><polygon class="cls-1" points="288.41 128.7 285.6 139.25 283.23 139.25 285.98 128.7 282.37 128.7 282.89 126.53 292.76 126.53 292.2 128.7 288.41 128.7"/><polygon class="cls-1" points="307.24 128.7 304.44 139.25 302 139.25 304.79 128.7 301.18 128.7 301.71 126.53 311.56 126.53 310.99 128.7 307.24 128.7"/><path class="cls-1" d="M348.57,137.42h-5.46l-1.42,2.46h-2.62l7.66-12.72h3.59l.9,12.72H348.7Zm-.06-1.76-.44-6.55-3.93,6.55Z" transform="translate(-28.84 -0.63)"/><path class="cls-1" d="M369.46,127.16l-3.37,12.72h-4l-1.78-6.94c-.06-.35-.22-1-.36-1.84l-.13-.93-.17-.91h-.11l-.19.83-.18.82-.41,1.74-1.94,7.23h-2.4l3.37-12.72h4.09l1.53,6.44c.17.61.32,1.29.46,2.11l.26,1,.21,1h.06l.21-.85.17-.84.45-1.57,1.91-7.35Z" transform="translate(-28.84 -0.63)"/><path class="cls-1" d="M377.16,133.1h5.56l-.62,2.56c-.51,1.8-1.13,3-2,3.52s-2.47.79-4.86.79c-2.17,0-3.57-.35-4.05-1s-.52-2.12.06-4.29c.73-2.8,1.3-4.57,1.87-5.31a4,4,0,0,1,2.06-1.77,11.23,11.23,0,0,1,3.75-.49c2.28,0,3.67.26,4.19.72s.56,1.53.15,3.2h-2.4c.11-.83.11-1.38-.19-1.53a4.4,4.4,0,0,0-2.31-.33,5,5,0,0,0-2.79.55,4.29,4.29,0,0,0-1.19,2.44l-.34,1.25-.41,1.63c-.35,1.24-.41,2-.13,2.41s1.11.53,2.46.53a5,5,0,0,0,2.63-.49,4,4,0,0,0,1.1-2l.14-.53h-3.18Z" transform="translate(-28.84 -0.63)"/><path class="cls-1" d="M391.39,133.1H397l-.64,2.56c-.47,1.8-1.19,3-2,3.52s-2.45.79-4.78.79-3.55-.35-4.05-1-.51-2.12,0-4.29a21.24,21.24,0,0,1,1.84-5.31,4.45,4.45,0,0,1,2.09-1.77,11.45,11.45,0,0,1,3.76-.49c2.28,0,3.64.26,4.21.72s.58,1.53.16,3.2h-2.47c.19-.83.08-1.38-.19-1.53s-1-.33-2.32-.33a4.86,4.86,0,0,0-2.73.55,4.28,4.28,0,0,0-1.2,2.44l-.35,1.25-.43,1.63a3.59,3.59,0,0,0-.08,2.41c.25.34,1.12.53,2.46.53a5.07,5.07,0,0,0,2.61-.49,3.51,3.51,0,0,0,1.07-2l.13-.53H391Z" transform="translate(-28.84 -0.63)"/><path class="cls-1" d="M407.27,137.42h-5.52l-1.42,2.46h-2.54l7.62-12.72H409l.93,12.72H407.4Zm-.11-1.76-.41-6.55-3.93,6.55Z" transform="translate(-28.84 -0.63)"/><path class="cls-1" d="M413,139.88l3.37-12.72h5.7c1.75,0,2.86.36,3.28.93s.47,1.77,0,3.46a6.33,6.33,0,0,1-1.68,3.38,6.89,6.89,0,0,1-3.74.82h-3.42l-1.05,4.13Zm4.08-6.13h2.67a4.3,4.3,0,0,0,2.22-.36,3.28,3.28,0,0,0,.95-1.78c.24-1.1.31-1.73.1-2s-.72-.37-1.72-.37h-3.07Z" transform="translate(-28.84 -0.63)"/><path class="cls-1" d="M44.5,195.51V198a12.07,12.07,0,0,1-5.74,1.38,8.76,8.76,0,0,1-4.43-1.11,7.49,7.49,0,0,1-2.9-2.94,7.39,7.39,0,0,1-1.13-4,7.76,7.76,0,0,1,2.51-5.81,8.4,8.4,0,0,1,6-2.34,14.52,14.52,0,0,1,5.51,1.29V187a11.18,11.18,0,0,0-5.42-1.61,6.43,6.43,0,0,0-4.47,1.73,5.61,5.61,0,0,0-1.75,4.3,5.54,5.54,0,0,0,1.71,4.22,6.33,6.33,0,0,0,4.47,1.69,10.11,10.11,0,0,0,5.62-1.77" transform="translate(-28.84 -0.63)"/><path class="cls-1" d="M65.16,183.36h1.6l7,15.82H71.47l-2.09-4.68H62.72l-2,4.68H58.45Zm3.34,9.14L66,186.86l-2.38,5.63Z" transform="translate(-28.84 -0.63)"/><path class="cls-1" d="M88,199.18V183.46h3.89a6,6,0,0,1,3.79,1.15A4.05,4.05,0,0,1,97,187.81a3.73,3.73,0,0,1-.73,2.4,3.64,3.64,0,0,1-1.92,1.5A11,11,0,0,1,95.91,193c.41.59,1.14,1.61,2,3a13.76,13.76,0,0,0,1.34,2l.75,1.14H97.4l-.73-1.07a.65.65,0,0,0-.12-.16l-.44-.62-.72-1.17-.75-1.23a18.78,18.78,0,0,0-1.3-1.56,6.8,6.8,0,0,0-1-.78,3.79,3.79,0,0,0-1.64-.23h-.56v6.82Zm2.92-13.83h-.7v5H91a6.16,6.16,0,0,0,2.33-.28,2,2,0,0,0,1-.89,2.14,2.14,0,0,0,.4-1.34,1.72,1.72,0,0,0-.43-1.31,1.92,1.92,0,0,0-1.09-.93,9.32,9.32,0,0,0-2.31-.22" transform="translate(-28.84 -0.63)"/><polygon class="cls-1" points="85.25 182.83 94.18 182.83 94.18 184.82 87.49 184.82 87.49 189.6 93.98 189.6 93.98 191.64 87.49 191.64 87.49 196.5 94.4 196.5 94.4 198.48 85.25 198.48 85.25 182.83"/><polygon class="cls-1" points="127.91 182.83 136.24 182.83 136.24 184.82 130.1 184.82 130.1 189.21 136.24 189.21 136.24 191.24 130.1 191.24 130.1 198.55 127.91 198.55 127.91 182.83"/><path class="cls-1" d="M187.58,183.22a8.41,8.41,0,0,1,6,2.28,7.84,7.84,0,0,1,2.4,5.81,7.63,7.63,0,0,1-2.4,5.75,8.65,8.65,0,0,1-6.18,2.31,8.15,8.15,0,0,1-5.93-2.31,7.74,7.74,0,0,1-2.36-5.69,8,8,0,0,1,2.36-5.87,8.32,8.32,0,0,1,6.08-2.28m.07,2.12a6.28,6.28,0,0,0-4.43,1.66,5.93,5.93,0,0,0-1.77,4.37,5.68,5.68,0,0,0,1.77,4.22,6.17,6.17,0,0,0,4.35,1.69,6,6,0,0,0,4.39-1.77,5.7,5.7,0,0,0,1.75-4.28,5.6,5.6,0,0,0-1.75-4.16,6,6,0,0,0-4.32-1.73" transform="translate(-28.84 -0.63)"/><path class="cls-1" d="M211.24,199.18V183.46h3.87a6.14,6.14,0,0,1,3.8,1.15,4,4,0,0,1,1.43,3.19,4.62,4.62,0,0,1-.72,2.4,4.1,4.1,0,0,1-2,1.5,6.71,6.71,0,0,1,1.44,1.31,26.61,26.61,0,0,1,2,3,14.75,14.75,0,0,0,1.34,2l.83,1.14H220.6l-.67-1.07s0-.07-.13-.16l-.39-.62-.7-1.17-.84-1.23a14.83,14.83,0,0,0-1.25-1.56,3.47,3.47,0,0,0-1.05-.78,3.16,3.16,0,0,0-1.53-.23h-.61v6.82Zm2.88-13.83h-.69v5h.85a6.24,6.24,0,0,0,2.34-.28,2.57,2.57,0,0,0,1-.89,2.81,2.81,0,0,0,.33-1.34,2.36,2.36,0,0,0-1.44-2.24,10.63,10.63,0,0,0-2.39-.22" transform="translate(-28.84 -0.63)"/><polygon class="cls-1" points="238.34 182.83 240.57 182.83 240.57 198.55 238.34 198.55 238.34 191.73 229.5 191.73 229.5 198.55 227.26 198.55 227.26 182.83 229.5 182.83 229.5 189.6 238.34 189.6 238.34 182.83"/><path class="cls-1" d="M296.13,183.46h2.26v8.9a9.49,9.49,0,0,1-.24,2.69,5.68,5.68,0,0,1-.64,1.59,6.8,6.8,0,0,1-.95,1.09,7.64,7.64,0,0,1-4.88,1.64,7.8,7.8,0,0,1-5-1.64,5,5,0,0,1-.92-1.09,8.54,8.54,0,0,1-.69-1.51,16,16,0,0,1-.19-2.77v-8.9h2.23v8.9a7,7,0,0,0,.5,3.08,3.84,3.84,0,0,0,1.58,1.39,4.86,4.86,0,0,0,2.43.52,5.07,5.07,0,0,0,3.23-1,4.45,4.45,0,0,0,1-1.35,7.79,7.79,0,0,0,.27-2.64Z" transform="translate(-28.84 -0.63)"/><polygon class="cls-1" points="297.51 182.83 299.61 182.83 299.61 198.55 297.34 198.55 297.34 186.33 292.53 192.39 292.09 192.39 287.21 186.33 287.21 198.55 284.95 198.55 284.95 182.83 287.08 182.83 292.34 189.26 297.51 182.83"/><path class="cls-1" d="M349.15,183.36h1.6l7,15.82h-2.32l-2.06-4.68h-6.7l-2,4.68h-2.28Zm3.37,9.14-2.58-5.63-2.38,5.63Z" transform="translate(-28.84 -0.63)"/><polygon class="cls-1" points="355.54 182.83 357.64 182.83 357.64 198.55 355.69 198.55 345.22 186.44 345.22 198.55 343.1 198.55 343.1 182.83 344.88 182.83 355.54 194.99 355.54 182.83"/><rect class="cls-1" x="373.38" y="182.83" width="2.23" height="15.72"/><polygon class="cls-1" points="390.08 182.8 403.21 182.8 403.21 184.81 397.79 184.81 397.79 198.55 395.45 198.55 395.45 184.81 390.08 184.81 390.08 182.8"/><polygon class="cls-1" points="427.09 182.83 429.79 182.83 424.04 190.23 424.04 198.55 421.7 198.55 421.7 190.23 415.92 182.83 418.62 182.83 422.86 188.27 427.09 182.83"/></svg>