<?xml version="1.0" encoding="utf-8"?>
<!-- Generator: Adobe Illustrator 19.1.0, SVG Export Plug-In . SVG Version: 6.00 Build 0)  -->
<svg version="1.1" id="Layer_1" xmlns="http://www.w3.org/2000/svg" xmlns:xlink="http://www.w3.org/1999/xlink" x="0px" y="0px"
	 viewBox="0 0 178 91" style="enable-background:new 0 0 178 91;" xml:space="preserve">
<style type="text/css">
	.st0{fill:#8DC63F;}
	.st1{fill:#F7941E;}
	.st2{fill:#FFFFFF;}
</style>
<g>
	<g>
		<g>
			<path class="st0" d="M6.6,60.3c0,0,12.9-37.8,53.8-41.1c6.9-0.5,14.8,3.7,16.2,7.3c0,0,3.2-19.3-17.1-18.4
				C39.2,9,13.1,27.5,7.2,46.8c0,0-2.3,5.9-0.7,13L6.6,60.3z"/>
			<path class="st1" d="M17.8,43.2c0,0,1.2,11.2,10.8,10.8c9.7-0.3,20.7-8.1,23.5-10.8c4.9-4.6,12.1-13,8.6-23.8l0,0
				c0,0-6.6,20-26.5,26.6c0,0-8.6,2.8-13.1-0.4C16.9,42.5,17.8,43.2,17.8,43.2z"/>
		</g>
		<path d="M98,41.4H83l-3.6,5.7h-7l19.3-29.6h9.9l4,29.6h-6.8L98,41.4z M97.5,37.2l-2-15.4l-9.9,15.4H97.5z"/>
		<path d="M132.7,36.5h6.6l-0.3,1c-1.1,4.1-2.7,6.8-4.7,8c-2.1,1.2-6.1,1.8-12.2,1.8c-6.8,0-10.8-1-11.9-2.9
			c-1.1-1.9-0.5-7,1.6-15.3c1.3-4.9,3.2-8.1,5.7-9.6c2.5-1.6,7.2-2.3,14-2.3c4.9,0,8.1,0.6,9.4,1.9c1.3,1.3,1.5,3.8,0.5,7.5
			l-0.1,0.7h-6.6l0.2-0.8c0.5-1.9,0.4-3.2-0.3-3.7c-0.7-0.5-2.6-0.8-5.6-0.8c-4.1,0-6.7,0.4-7.7,1.3c-1.1,0.9-2.1,3.4-3.2,7.6
			c-1.5,5.7-2,9-1.5,10.1c0.5,1,2.7,1.6,6.8,1.6c3.3,0,5.5-0.3,6.6-0.9c1.1-0.6,2-1.9,2.5-3.8L132.7,36.5z"/>
		<polygon points="161,22.5 154.5,47.1 147.9,47.1 154.4,22.5 144.4,22.5 145.7,17.4 172.6,17.4 171.3,22.5 		"/>
		<polygon points="66.9,62.2 70.4,51.8 165.3,51.8 162.5,62.2 		"/>
		<g>
			<path class="st2" d="M75.5,58.2h-2.1l-0.6,0.9h-1l2.9-4.7h1.4l0.4,4.7h-1L75.5,58.2z M75.5,57.6l-0.2-2.4l-1.5,2.4H75.5z"/>
			<polygon class="st2" points="80,54.5 79.5,56.4 79.9,56.4 82,54.5 83.2,54.5 80.6,56.7 82.1,59.1 80.9,59.1 79.7,57.1 79.3,57.1 
				78.7,59.1 77.8,59.1 79.1,54.5 			"/>
			<path class="st2" d="M87.8,55.8h-0.9c0-0.1,0-0.1,0-0.1c0.1-0.3,0-0.4,0-0.5c-0.1-0.1-0.3-0.1-0.7-0.1c-0.4,0-0.7,0-0.9,0.1
				c-0.1,0.1-0.3,0.2-0.3,0.5c-0.1,0.3-0.1,0.5,0,0.5c0.1,0.1,0.4,0.1,1.1,0.1c0.7,0,1.2,0.1,1.3,0.3c0.2,0.2,0.2,0.5,0.1,1
				c-0.2,0.6-0.4,1-0.7,1.2c-0.3,0.2-0.9,0.3-1.7,0.3c-0.8,0-1.3-0.1-1.5-0.3c-0.2-0.2-0.2-0.5-0.1-1.1l0-0.2h0.9l0,0.1
				c-0.1,0.3-0.1,0.5,0,0.6c0.1,0.1,0.4,0.1,1,0.1c0.4,0,0.7,0,0.8-0.1c0.1-0.1,0.2-0.3,0.3-0.6c0.1-0.2,0.1-0.4,0-0.4
				c-0.1-0.1-0.2-0.1-0.5-0.1l-0.5,0c-0.8,0-1.2-0.1-1.4-0.3c-0.2-0.2-0.2-0.5,0-1c0.1-0.5,0.4-0.9,0.7-1.1c0.3-0.2,0.8-0.3,1.6-0.3
				c0.7,0,1.2,0.1,1.4,0.2c0.2,0.2,0.3,0.5,0.1,1L87.8,55.8z"/>
			<polygon class="st2" points="90.7,54.5 89.4,59.1 88.4,59.1 89.8,54.5 			"/>
			<path class="st2" d="M97.1,57.5h0.9l0,0.2c-0.2,0.6-0.4,1.1-0.7,1.3c-0.3,0.2-0.9,0.3-1.7,0.3c-1,0-1.5-0.2-1.7-0.4
				c-0.1-0.3,0-1.1,0.3-2.4c0.2-0.8,0.5-1.3,0.9-1.5c0.4-0.2,1-0.4,2-0.4c0.7,0,1.1,0.1,1.3,0.3c0.2,0.2,0.2,0.6,0,1.2l0,0.1h-0.9
				l0-0.1c0.1-0.3,0.1-0.5,0-0.6c-0.1-0.1-0.4-0.1-0.8-0.1c-0.6,0-0.9,0.1-1.1,0.2c-0.2,0.1-0.3,0.5-0.5,1.2
				c-0.2,0.9-0.3,1.4-0.3,1.6c0.1,0.2,0.4,0.2,0.9,0.2c0.5,0,0.8,0,0.9-0.1c0.2-0.1,0.3-0.3,0.4-0.6L97.1,57.5z"/>
			<polygon class="st2" points="100.9,55.2 100.6,56.4 102.9,56.4 102.7,57.1 100.4,57.1 100,58.4 102.4,58.4 102.2,59.1 98.9,59.1 
				100.2,54.5 103.5,54.5 103.3,55.2 			"/>
			<path class="st2" d="M103.7,59.1l1.3-4.7h2h0.2c0.7,0,1.1,0.1,1.3,0.3c0.2,0.2,0.2,0.6,0,1.3c-0.2,0.6-0.4,1-0.7,1.2
				c-0.3,0.2-0.7,0.3-1.4,0.3h-0.2h-1.1l-0.4,1.5H103.7z M105.3,56.9h1.1c0.4,0,0.7,0,0.8-0.1c0.2-0.1,0.3-0.3,0.4-0.6
				c0.1-0.4,0.1-0.6,0.1-0.7c-0.1-0.1-0.3-0.1-0.7-0.1h-1.1L105.3,56.9z"/>
			<path class="st2" d="M112.2,58.2h-2.1l-0.6,0.9h-1l2.9-4.7h1.4l0.4,4.7h-1L112.2,58.2z M112.2,57.6l-0.2-2.4l-1.5,2.4H112.2z"/>
			<polygon class="st2" points="117.5,55.3 116.4,59.1 115.4,59.1 116.5,55.3 115.1,55.3 115.3,54.5 119.1,54.5 118.9,55.3 			"/>
			<polygon class="st2" points="124.7,55.3 123.7,59.1 122.7,59.1 123.8,55.3 122.4,55.3 122.6,54.5 126.4,54.5 126.2,55.3 			"/>
			<path class="st2" d="M129.6,58.2h-2.1l-0.6,0.9h-1l2.9-4.7h1.4l0.4,4.7h-1L129.6,58.2z M129.6,57.6l-0.2-2.4l-1.5,2.4H129.6z"/>
			<path class="st2" d="M137.7,54.5l-1.3,4.7h-1.6l-0.7-2.6c0-0.1-0.1-0.3-0.1-0.7l-0.1-0.3l-0.1-0.3h0l-0.1,0.3l-0.1,0.3l-0.2,0.6
				l-0.8,2.7h-0.9l1.3-4.7h1.6l0.6,2.4c0.1,0.2,0.1,0.5,0.2,0.8l0.1,0.4l0.1,0.4h0l0.1-0.3l0.1-0.3l0.2-0.6l0.7-2.7H137.7z"/>
			<path class="st2" d="M140.6,56.6h2.2l-0.2,0.9c-0.2,0.7-0.4,1.1-0.8,1.3c-0.3,0.2-0.9,0.3-1.9,0.3c-0.8,0-1.4-0.1-1.6-0.4
				c-0.2-0.3-0.2-0.8,0-1.6c0.3-1,0.5-1.7,0.7-1.9c0.2-0.3,0.5-0.5,0.8-0.7c0.3-0.1,0.8-0.2,1.5-0.2c0.9,0,1.4,0.1,1.6,0.3
				c0.2,0.2,0.2,0.6,0.1,1.2h-0.9c0.1-0.3,0-0.5-0.1-0.6c-0.1-0.1-0.4-0.1-0.9-0.1c-0.5,0-0.9,0.1-1.1,0.2c-0.2,0.1-0.3,0.4-0.5,0.9
				l-0.1,0.5l-0.2,0.6c-0.1,0.5-0.1,0.7,0,0.9c0.1,0.1,0.4,0.2,0.9,0.2c0.5,0,0.9,0,1-0.2c0.2-0.1,0.3-0.4,0.4-0.8l0.1-0.2h-1.2
				L140.6,56.6z"/>
			<path class="st2" d="M146.2,56.6h2.2l-0.2,0.9c-0.2,0.7-0.4,1.1-0.8,1.3c-0.3,0.2-0.9,0.3-1.9,0.3c-0.8,0-1.4-0.1-1.6-0.4
				c-0.2-0.3-0.2-0.8,0-1.6c0.3-1,0.5-1.7,0.7-1.9c0.2-0.3,0.5-0.5,0.8-0.7c0.3-0.1,0.8-0.2,1.5-0.2c0.9,0,1.4,0.1,1.6,0.3
				c0.2,0.2,0.2,0.6,0.1,1.2h-0.9c0.1-0.3,0.1-0.5,0-0.6c-0.1-0.1-0.4-0.1-0.9-0.1c-0.5,0-0.9,0.1-1.1,0.2c-0.2,0.1-0.3,0.4-0.5,0.9
				l-0.1,0.5l-0.2,0.6c-0.1,0.5-0.1,0.7,0,0.9c0.1,0.1,0.4,0.2,0.9,0.2c0.5,0,0.8,0,1-0.2c0.2-0.1,0.3-0.4,0.4-0.8l0-0.2H146
				L146.2,56.6z"/>
			<path class="st2" d="M152.3,58.2h-2.1l-0.6,0.9h-1l2.9-4.7h1.4l0.4,4.7h-1L152.3,58.2z M152.3,57.6l-0.2-2.4l-1.5,2.4H152.3z"/>
			<path class="st2" d="M154.5,59.1l1.3-4.7h2h0.3c0.7,0,1.1,0.1,1.2,0.3c0.2,0.2,0.2,0.6,0,1.3c-0.2,0.6-0.4,1-0.7,1.2
				c-0.3,0.2-0.8,0.3-1.4,0.3H157h-1.1l-0.4,1.5H154.5z M156.1,56.9h1.1c0.4,0,0.7,0,0.9-0.1c0.1-0.1,0.3-0.3,0.3-0.6
				c0.1-0.4,0.1-0.6,0.1-0.7c-0.1-0.1-0.3-0.1-0.7-0.1h-1.2L156.1,56.9z"/>
		</g>
	</g>
	<g>
		<path d="M12,79.5v0.9c-0.7,0.3-1.4,0.5-2.2,0.5c-0.7,0-1.3-0.1-1.7-0.4c-0.5-0.3-0.8-0.6-1.1-1.1C6.6,79,6.5,78.5,6.5,78
			c0-0.8,0.3-1.5,0.9-2.1C8.1,75.3,8.8,75,9.8,75c0.6,0,1.4,0.2,2.1,0.5v0.9c-0.7-0.4-1.4-0.6-2.1-0.6c-0.7,0-1.3,0.2-1.7,0.6
			c-0.5,0.4-0.7,0.9-0.7,1.6c0,0.6,0.2,1.1,0.7,1.6c0.5,0.4,1,0.6,1.7,0.6C10.5,80.1,11.2,79.9,12,79.5z"/>
		<path d="M20,75h0.6l2.7,5.8h-0.9l-0.8-1.7H19l-0.8,1.7h-0.9L20,75z M21.2,78.4l-1-2.1l-0.9,2.1H21.2z"/>
		<path d="M28.7,80.8v-5.8h1.5c0.6,0,1.1,0.2,1.5,0.4c0.4,0.3,0.5,0.7,0.5,1.2c0,0.3-0.1,0.6-0.3,0.9c-0.2,0.2-0.4,0.4-0.8,0.5
			c0.2,0.1,0.4,0.3,0.6,0.5c0.2,0.2,0.5,0.6,0.8,1.1c0.2,0.3,0.4,0.6,0.5,0.7l0.3,0.4h-1l-0.3-0.4c0,0,0,0-0.1-0.1l-0.2-0.2
			l-0.3-0.4l-0.3-0.4c-0.2-0.2-0.3-0.4-0.5-0.6c-0.1-0.1-0.3-0.2-0.4-0.3c-0.1-0.1-0.3-0.1-0.6-0.1h-0.2v2.5H28.7z M29.9,75.8h-0.2
			v1.8H30c0.4,0,0.7,0,0.9-0.1c0.2-0.1,0.3-0.2,0.4-0.3c0.1-0.1,0.1-0.3,0.1-0.5c0-0.2,0-0.3-0.2-0.5c-0.1-0.2-0.2-0.3-0.4-0.3
			C30.6,75.8,30.3,75.8,29.9,75.8z"/>
		<polygon points="38.9,75.1 42.3,75.1 42.3,75.8 39.8,75.8 39.8,77.6 42.2,77.6 42.2,78.3 39.8,78.3 39.8,80.1 42.4,80.1 
			42.4,80.8 38.9,80.8 		"/>
		<polygon points="55.4,75.1 58.6,75.1 58.6,75.8 56.2,75.8 56.2,77.4 58.6,77.4 58.6,78.2 56.2,78.2 56.2,80.8 55.4,80.8 		"/>
		<path d="M67.3,75c0.9,0,1.7,0.3,2.4,0.8c0.6,0.6,0.9,1.3,0.9,2.1c0,0.8-0.3,1.5-0.9,2.1c-0.6,0.6-1.4,0.8-2.4,0.8
			c-0.9,0-1.7-0.3-2.3-0.8C64.3,79.5,64,78.8,64,78c0-0.9,0.3-1.6,0.9-2.1C65.6,75.3,66.3,75,67.3,75z M67.3,75.8
			c-0.7,0-1.3,0.2-1.7,0.6c-0.5,0.4-0.7,0.9-0.7,1.6c0,0.6,0.2,1.1,0.7,1.5c0.5,0.4,1,0.6,1.7,0.6c0.7,0,1.3-0.2,1.7-0.6
			c0.5-0.4,0.7-0.9,0.7-1.6c0-0.6-0.2-1.1-0.7-1.5C68.5,76,68,75.8,67.3,75.8z"/>
		<path d="M76.4,80.8v-5.8H78c0.6,0,1.1,0.2,1.5,0.4c0.4,0.3,0.5,0.7,0.5,1.2c0,0.3-0.1,0.6-0.3,0.9c-0.2,0.2-0.4,0.4-0.8,0.5
			c0.2,0.1,0.4,0.3,0.6,0.5c0.2,0.2,0.4,0.6,0.8,1.1c0.2,0.3,0.4,0.6,0.5,0.7l0.3,0.4h-1l-0.3-0.4c0,0,0,0-0.1-0.1l-0.2-0.2
			l-0.3-0.4L79,79.3c-0.2-0.2-0.3-0.4-0.5-0.6c-0.1-0.1-0.3-0.2-0.4-0.3c-0.1-0.1-0.3-0.1-0.6-0.1h-0.2v2.5H76.4z M77.6,75.8h-0.3
			v1.8h0.3c0.5,0,0.8,0,0.9-0.1c0.2-0.1,0.3-0.2,0.4-0.3c0.1-0.1,0.1-0.3,0.1-0.5c0-0.2-0.1-0.3-0.2-0.5c-0.1-0.2-0.2-0.3-0.4-0.3
			C78.3,75.8,78,75.8,77.6,75.8z"/>
		<polygon points="98.1,75.1 99,75.1 99,80.8 98.1,80.8 98.1,78.3 94.7,78.3 94.7,80.8 93.8,80.8 93.8,75.1 94.7,75.1 94.7,77.6 
			98.1,77.6 		"/>
		<path d="M109.3,75.1h0.9v3.3c0,0.4,0,0.8-0.1,1c-0.1,0.2-0.2,0.4-0.3,0.6c-0.1,0.2-0.2,0.3-0.4,0.4c-0.5,0.4-1.1,0.6-1.9,0.6
			c-0.8,0-1.4-0.2-1.9-0.6c-0.2-0.1-0.3-0.3-0.4-0.4c-0.1-0.1-0.2-0.3-0.2-0.6c-0.1-0.2-0.1-0.6-0.1-1v-3.3h0.9v3.3
			c0,0.5,0.1,0.9,0.2,1.1c0.1,0.2,0.3,0.4,0.6,0.5c0.3,0.1,0.6,0.2,0.9,0.2c0.5,0,0.9-0.1,1.3-0.4c0.2-0.1,0.3-0.3,0.4-0.5
			c0.1-0.2,0.1-0.5,0.1-1V75.1z"/>
		<polygon points="121,75.1 121.8,75.1 121.8,80.8 120.9,80.8 120.9,76.4 119,78.6 118.9,78.6 117,76.4 117,80.8 116.1,80.8 
			116.1,75.1 117,75.1 119,77.4 		"/>
		<path d="M129.8,75h0.6l2.7,5.8h-0.9l-0.8-1.7h-2.6l-0.8,1.7h-0.9L129.8,75z M131.1,78.4l-1-2.1l-0.9,2.1H131.1z"/>
		<polygon points="143.4,75.1 144.2,75.1 144.2,80.8 143.5,80.8 139.4,76.4 139.4,80.8 138.6,80.8 138.6,75.1 139.3,75.1 
			143.4,79.5 		"/>
		<rect x="150.3" y="75.1" width="0.9" height="5.8"/>
		<polygon points="156.8,75.1 161.9,75.1 161.9,75.8 159.8,75.8 159.8,80.8 158.9,80.8 158.9,75.8 156.8,75.8 		"/>
		<polygon points="171.1,75.1 172.2,75.1 169.9,77.8 169.9,80.8 169,80.8 169,77.8 166.8,75.1 167.9,75.1 169.5,77.1 		"/>
	</g>
</g>
</svg>
